<?xml version="1.0" standalone="no"?>
<!DOCTYPE svg PUBLIC "-//W3C//DTD SVG 20010904//EN"
 "http://www.w3.org/TR/2001/REC-SVG-20010904/DTD/svg10.dtd">
<svg version="1.0" xmlns="http://www.w3.org/2000/svg"
 width="1024.000000pt" height="1024.000000pt" viewBox="0 0 1024.000000 1024.000000"
 preserveAspectRatio="xMidYMid meet">

<g transform="translate(0.000000,1024.000000) scale(0.100000,-0.100000)"
fill="#000000" stroke="none">
<path d="M781 7214 c0 -11 3 -14 6 -6 3 7 2 16 -1 19 -3 4 -6 -2 -5 -13z"/>
<path d="M1150 6900 c-13 -9 -13 -10 0 -10 8 0 22 5 30 10 13 9 13 10 0 10 -8
0 -22 -5 -30 -10z"/>
<path d="M649 6863 c-13 -16 -12 -17 4 -4 16 13 21 21 13 21 -2 0 -10 -8 -17
-17z"/>
<path d="M580 6783 l-55 -58 58 55 c31 30 57 56 57 57 0 8 -10 -1 -60 -54z"/>
<path d="M1823 6364 c-3 -8 -1 -34 5 -57 10 -42 10 -42 9 -7 -1 19 2 45 7 58
8 25 -11 32 -21 6z"/>
<path d="M297 6244 c9 -56 21 -84 35 -84 10 0 10 2 1 8 -7 5 -17 29 -22 56
-10 57 -23 74 -14 20z"/>
<path d="M387 6139 c7 -7 15 -10 18 -7 3 3 -2 9 -12 12 -14 6 -15 5 -6 -5z"/>
<path d="M903 6088 c-9 -12 -20 -99 -11 -88 18 23 38 61 29 55 -8 -5 -10 1 -5
19 7 28 2 33 -13 14z"/>
<path d="M510 6076 c0 -2 8 -10 18 -17 15 -13 16 -12 3 4 -13 16 -21 21 -21
13z"/>
<path d="M9090 6041 l-25 -7 28 -6 c16 -3 27 -1 27 6 0 6 5 4 10 -4 6 -10 10
-11 10 -2 0 19 24 14 35 -7 28 -53 69 -121 72 -118 2 2 -4 20 -12 40 -8 20
-15 41 -15 47 0 20 25 -13 43 -55 9 -22 16 -32 16 -22 1 10 -6 33 -13 52 -8
19 -11 35 -6 35 5 0 19 -27 31 -60 22 -61 33 -66 42 -20 4 23 4 22 6 -5 1 -31
22 -100 34 -111 4 -4 7 9 7 29 0 49 18 47 26 -3 7 -44 19 -52 27 -18 9 32 17
18 19 -30 1 -43 18 -60 18 -19 0 12 5 29 10 37 7 11 10 -1 10 -42 0 -31 5 -60
10 -63 6 -4 10 7 10 25 0 18 4 29 10 25 6 -3 11 -39 11 -78 1 -40 4 -61 6 -47
3 14 9 29 13 34 15 16 24 -46 13 -96 -5 -27 -6 -51 -1 -54 4 -3 8 3 8 12 0 17
40 108 45 102 1 -2 -1 -27 -4 -55 -4 -29 -4 -58 1 -65 6 -10 8 -8 8 4 0 9 12
30 27 45 l26 28 -7 -25 c-4 -14 -8 -31 -8 -37 -1 -7 -5 -13 -9 -13 -4 0 -10
-12 -14 -27 -3 -16 -20 -56 -36 -91 -16 -34 -29 -66 -29 -71 0 -5 -3 -11 -7
-13 -13 -5 -82 -148 -73 -148 5 0 12 10 16 22 3 12 12 28 18 35 22 24 31 40
61 96 31 59 39 67 48 43 4 -10 1 -13 -9 -9 -11 4 -15 0 -14 -13 4 -34 0 -45
-12 -38 -7 4 -8 3 -4 -4 9 -15 -25 -80 -63 -121 -35 -37 -36 -41 -18 -41 6 0
23 17 37 37 14 20 35 47 46 58 l22 22 -2 -23 c0 -12 -4 -20 -9 -17 -7 4 -37
-21 -37 -32 0 -3 -12 -18 -26 -33 -14 -15 -30 -38 -35 -51 -6 -15 -15 -21 -25
-17 -9 3 -14 1 -12 -7 1 -6 -43 -57 -98 -113 -54 -55 -151 -167 -214 -248 -63
-82 -150 -189 -194 -240 l-78 -91 67 70 c37 38 84 92 105 120 21 27 62 77 91
111 30 33 67 77 83 97 15 20 32 34 37 31 5 -3 18 11 30 30 12 20 24 34 28 31
4 -2 25 14 46 35 22 22 35 40 30 40 -6 1 5 7 24 16 19 8 31 17 28 20 -6 7 24
41 31 36 2 -2 17 9 33 24 16 15 32 25 35 21 3 -3 -15 -26 -41 -51 -63 -62 -43
-59 27 4 31 28 59 50 63 50 3 0 24 16 45 36 53 49 80 68 80 55 0 -6 -3 -11 -7
-11 -15 -1 -118 -98 -111 -105 6 -7 79 42 86 58 5 9 32 9 32 -1 0 -4 -10 -14
-21 -22 -12 -8 -27 -20 -33 -26 -6 -6 -31 -23 -55 -38 -63 -40 -44 -42 30 -3
35 19 74 37 87 41 36 12 25 -8 -18 -33 -22 -12 -46 -28 -53 -36 -8 -7 -39 -29
-70 -49 -75 -48 -73 -55 3 -10 33 19 65 32 70 29 6 -3 10 -1 10 4 0 6 6 11 14
11 8 0 16 5 18 10 2 7 9 6 20 -2 15 -12 6 -20 -82 -73 -55 -33 -100 -63 -100
-67 0 -4 27 9 61 28 68 40 113 56 135 47 10 -4 -20 -26 -86 -63 -56 -31 -107
-63 -113 -71 -10 -10 -9 -11 3 -2 8 6 49 25 90 42 41 18 83 36 93 42 11 6 21
9 23 6 9 -8 -46 -47 -131 -92 -97 -51 -238 -145 -231 -152 3 -3 22 9 43 25 53
42 235 134 252 127 8 -3 23 2 33 12 15 14 19 14 16 3 -2 -8 -59 -43 -126 -78
-116 -58 -219 -127 -252 -168 -8 -9 17 6 56 35 70 50 213 119 264 127 14 2 17
1 8 -2 -104 -32 -495 -294 -439 -294 6 0 14 7 17 15 4 8 11 12 17 8 6 -4 7 -1
2 7 -6 10 -4 12 7 8 9 -4 40 8 69 26 54 32 166 86 178 86 3 0 -25 -17 -64 -38
-97 -52 -215 -122 -215 -128 0 -2 24 9 54 26 33 19 61 28 72 24 13 -4 15 -3 6
3 -9 7 -6 12 13 21 15 7 24 8 20 2 -9 -14 -5 -13 68 20 102 46 94 35 -11 -15
-51 -25 -96 -44 -100 -43 -9 3 -93 -44 -88 -50 3 -2 17 3 33 12 35 19 186 77
190 72 2 -2 -20 -13 -49 -26 -116 -49 -208 -93 -204 -97 2 -2 22 5 44 16 50
25 248 101 265 101 6 0 -37 -21 -98 -45 -173 -71 -186 -77 -182 -81 2 -3 21 3
43 12 68 29 197 74 201 71 3 -3 -141 -65 -225 -97 -67 -26 -23 -18 58 10 47
15 86 27 88 25 2 -2 -35 -18 -82 -36 -137 -52 -92 -44 60 10 76 28 140 48 142
46 2 -1 -23 -13 -55 -24 -129 -48 -293 -115 -289 -118 2 -2 21 3 42 12 20 8
47 13 58 10 17 -5 18 -4 6 5 -12 8 -8 9 15 5 22 -4 25 -3 10 3 -18 8 -17 9 7
15 14 4 34 10 45 13 15 5 16 4 3 -6 -12 -9 -8 -10 20 -6 30 5 32 5 11 -4 -13
-6 -33 -8 -44 -4 -12 4 -17 2 -13 -4 6 -10 -20 -23 -59 -28 -42 -5 -190 -63
-165 -64 49 -3 165 1 200 6 291 43 558 231 685 484 37 73 80 207 99 309 58
304 -42 613 -272 839 -109 108 -237 179 -407 229 -56 16 -344 27 -385 14z
m123 -16 c4 -8 2 -17 -3 -20 -6 -4 -10 -4 -10 -1 0 2 -3 11 -6 20 -3 9 -2 16
4 16 5 0 12 -7 15 -15z m104 -57 c-3 -8 -6 -5 -6 6 -1 11 2 17 5 13 3 -3 4
-12 1 -19z m326 -578 c-3 -12 -8 -19 -11 -16 -5 6 5 36 12 36 2 0 2 -9 -1 -20z
m-43 -306 c0 -13 -31 -35 -41 -29 -6 5 -4 12 8 21 19 14 33 18 33 8z m-240
-199 c-7 -9 -15 -13 -19 -10 -3 3 1 10 9 15 21 14 24 12 10 -5z m129 -338 c-5
-4 -160 -101 -176 -111 -7 -4 -13 -5 -13 -1 0 9 182 126 188 120 3 -3 3 -6 1
-8z m91 3 c-8 -5 -19 -10 -25 -10 -5 0 -3 5 5 10 8 5 20 10 25 10 6 0 3 -5 -5
-10z m-51 -44 c-10 -9 -89 -46 -89 -41 0 6 72 44 84 45 5 0 7 -2 5 -4z m78
-32 c-3 -3 -12 -4 -19 -1 -8 3 -5 6 6 6 11 1 17 -2 13 -5z m-47 -14 c-8 -5
-19 -10 -25 -10 -5 0 -3 5 5 10 8 5 20 10 25 10 6 0 3 -5 -5 -10z m-10 -90
c-8 -5 -19 -10 -25 -10 -5 0 -3 5 5 10 8 5 20 10 25 10 6 0 3 -5 -5 -10z m-40
-70 c-8 -5 -19 -10 -25 -10 -5 0 -3 5 5 10 8 5 20 10 25 10 6 0 3 -5 -5 -10z
m-43 -16 c-3 -3 -12 -4 -19 -1 -8 3 -5 6 6 6 11 1 17 -2 13 -5z m-172 -95
c-33 -11 -66 -18 -75 -16 -8 1 12 10 45 19 83 22 103 20 30 -3z m92 5 c-3 -3
-12 -4 -19 -1 -8 3 -5 6 6 6 11 1 17 -2 13 -5z"/>
<path d="M1014 6014 c-18 -14 -18 -15 4 -4 12 6 22 13 22 15 0 8 -5 6 -26 -11z"/>
<path d="M9145 5990 c3 -5 8 -10 11 -10 2 0 4 5 4 10 0 6 -5 10 -11 10 -5 0
-7 -4 -4 -10z"/>
<path d="M945 5981 c3 -2 -3 -10 -13 -18 -16 -13 -15 -13 3 -4 43 22 51 30 28
28 -12 0 -20 -3 -18 -6z"/>
<path d="M1238 5973 c7 -3 16 -2 19 1 4 3 -2 6 -13 5 -11 0 -14 -3 -6 -6z"/>
<path d="M1532 5930 c0 -19 2 -27 5 -17 2 9 2 25 0 35 -3 9 -5 1 -5 -18z"/>
<path d="M2334 5895 c-9 -14 -15 -27 -13 -30 3 -2 12 10 21 26 21 36 15 39 -8
4z"/>
<path d="M9262 5860 c0 -14 2 -19 5 -12 2 6 2 18 0 25 -3 6 -5 1 -5 -13z"/>
<path d="M1518 5720 c-5 -90 -14 -150 -33 -215 -46 -156 -89 -236 -267 -496
l-45 -66 2 41 c1 23 6 57 13 76 34 105 51 276 33 322 -5 13 -15 56 -21 96 -7
40 -14 71 -16 69 -3 -2 5 -60 17 -127 19 -108 20 -132 10 -194 -10 -60 -57
-229 -107 -381 l-13 -40 -1 35 c-2 32 -3 33 -10 10 -4 -14 -8 -42 -9 -63 -1
-21 -5 -36 -10 -33 -5 3 -7 25 -5 49 3 33 2 37 -5 17 -8 -22 -9 -19 -11 20 -2
42 -3 43 -10 15 -7 -28 -8 -27 -10 15 -1 25 -2 101 -2 170 l0 125 -8 -90 c-4
-49 -11 -144 -16 -210 -4 -66 -10 -108 -12 -92 -5 38 -22 34 -23 -5 l-2 -33
-7 35 c-5 24 -8 28 -9 12 0 -14 -5 -20 -12 -17 -6 4 -8 13 -5 21 3 8 1 14 -5
14 -5 0 -14 10 -19 23 -6 15 -9 17 -9 5 -1 -9 -4 -25 -7 -35 -5 -14 -4 -15 4
-4 9 12 12 10 18 -12 3 -16 4 -31 0 -34 -3 -4 -6 2 -6 13 0 15 -2 16 -9 5 -13
-20 -34 51 -27 92 4 23 4 27 -3 12 -28 -64 -26 235 3 418 15 93 70 252 85 243
4 -3 8 4 8 16 3 28 52 90 66 82 7 -4 9 -4 5 1 -10 10 31 67 43 59 5 -3 18 13
28 35 21 49 30 45 25 -12 -3 -32 -2 -37 5 -22 6 12 10 15 10 6 1 -8 3 -12 6
-9 3 3 -2 36 -11 74 l-18 68 -13 -40 c-7 -22 -36 -67 -63 -100 -28 -32 -68
-86 -90 -118 -26 -39 -40 -53 -40 -40 -1 10 -11 -21 -24 -69 -13 -48 -26 -90
-29 -93 -2 -3 -10 35 -17 83 -14 104 -40 226 -46 220 -3 -3 2 -34 10 -70 29
-123 40 -326 26 -484 -15 -176 -5 -275 44 -418 4 -11 0 -8 -9 8 -20 34 -28 35
-14 1 5 -15 8 -29 5 -31 -2 -2 -40 69 -85 159 -99 200 -137 326 -127 428 9 87
22 134 52 184 l25 41 -25 -30 c-32 -37 -45 -74 -60 -173 l-13 -77 -22 72 c-12
40 -26 75 -32 79 -6 3 -8 12 -5 20 3 8 -1 43 -8 77 -8 34 -20 88 -26 120 -6
32 -14 57 -16 54 -4 -3 4 -42 41 -224 5 -22 1 -19 -19 17 -37 67 -31 26 8 -55
33 -68 106 -255 106 -271 0 -4 -7 1 -15 12 -8 10 18 -55 59 -146 96 -217 115
-256 148 -311 15 -25 28 -52 28 -59 0 -6 21 -36 48 -65 63 -72 294 -459 294
-495 0 -8 12 -27 26 -42 21 -23 5 -17 -88 32 -119 64 -162 77 -60 19 72 -40
108 -66 63 -44 -38 18 -58 20 -26 2 12 -7 21 -16 20 -21 -1 -5 14 -15 33 -22
65 -23 4 -14 -111 16 -138 37 -241 44 -474 32 l-170 -9 225 0 c237 0 330 -12
485 -62 l60 -20 -40 -1 c-168 -2 -331 -74 -461 -204 -70 -70 -133 -176 -149
-252 -3 -16 6 0 21 36 72 171 157 263 319 343 164 81 344 77 510 -12 42 -22
79 -51 93 -71 12 -18 22 -27 22 -20 0 27 -34 81 -76 120 -24 22 -44 42 -44 43
0 7 131 -12 195 -28 161 -40 265 -116 325 -238 42 -86 64 -215 56 -332 -18
-273 -18 -311 -2 -420 9 -60 21 -123 26 -140 26 -88 29 -107 14 -94 -8 6 -14
19 -15 28 0 9 -3 11 -5 4 -3 -6 2 -25 10 -42 29 -55 16 -47 -15 9 -16 30 -27
44 -23 30 10 -35 11 -46 7 -37 -3 4 -9 4 -15 1 -5 -3 -16 2 -24 12 -9 11 -13
13 -9 7 3 -7 4 -13 1 -13 -3 0 -19 26 -35 58 -24 45 -30 51 -28 30 1 -16 5
-28 9 -28 4 0 8 -7 8 -16 0 -8 -5 -12 -11 -8 -18 10 -194 376 -249 513 -27 69
-49 122 -50 117 -1 -34 149 -395 206 -491 46 -80 17 -48 -57 63 -98 145 -136
190 -264 313 -123 118 -162 153 -220 193 -34 24 -32 21 10 -15 28 -24 70 -63
95 -87 l45 -43 -60 29 c-94 46 -160 62 -249 61 l-81 -2 100 -8 c110 -8 150
-20 258 -76 95 -49 229 -184 322 -324 183 -277 436 -571 563 -654 51 -33 49
-47 -2 -15 -20 12 -36 19 -36 15 0 -4 -15 3 -34 14 -40 25 -53 27 -35 4 12
-15 11 -14 -13 1 -15 10 -31 15 -36 12 -5 -3 -42 9 -83 26 -101 42 -215 84
-329 120 -52 16 -129 44 -170 63 -173 76 -346 113 -459 98 -41 -5 -66 -13 -69
-22 -4 -11 0 -12 14 -6 11 5 55 10 99 12 91 5 198 -16 335 -67 47 -17 132 -48
190 -69 193 -70 393 -153 599 -248 202 -94 266 -129 352 -195 100 -76 397
-206 536 -235 53 -11 132 -16 248 -16 152 -1 186 3 325 31 191 39 311 81 502
178 82 41 195 91 251 111 102 37 103 37 267 37 183 1 237 -10 388 -79 77 -36
99 -39 32 -5 -22 11 -40 26 -40 32 0 6 -3 9 -6 5 -4 -3 -28 5 -55 18 -27 14
-57 25 -67 25 -10 0 -22 3 -26 7 -4 4 -13 8 -19 9 -7 0 -21 2 -32 3 -17 1 -18
3 -5 12 11 7 3 9 -30 5 -31 -4 -37 -3 -20 3 l25 8 -26 11 c-66 27 -265 36
-291 14 -13 -10 -18 -11 -18 -3 0 13 -60 6 -93 -11 -12 -6 -23 -5 -33 3 -11 9
-18 8 -31 -2 -11 -9 -14 -10 -9 -2 4 7 16 18 28 24 16 9 19 8 13 -2 -5 -8 -4
-10 4 -5 9 6 9 11 0 22 -7 9 -8 14 -3 13 24 -4 44 2 44 15 0 8 5 18 12 22 7 4
8 3 4 -4 -5 -8 -2 -10 8 -6 9 3 14 10 11 14 -3 4 3 7 12 6 10 0 18 5 19 12 3
23 4 24 18 13 10 -8 16 -9 21 -1 3 6 10 8 14 5 5 -2 19 7 32 21 12 13 28 23
34 20 7 -2 18 0 26 5 11 7 11 9 1 9 -7 0 -11 4 -7 10 3 5 12 7 19 4 8 -3 28
12 46 33 18 21 29 31 25 23 -7 -11 -4 -11 11 2 11 9 31 21 44 27 40 16 -4 13
-47 -3 -21 -8 -59 -21 -86 -31 -28 -10 -44 -21 -41 -27 4 -7 2 -8 -4 -4 -14 9
-28 1 -174 -92 -71 -45 -115 -79 -111 -86 3 -6 3 -8 -2 -4 -4 4 -59 -20 -121
-53 -63 -33 -129 -62 -146 -64 -18 -2 -58 -11 -88 -19 -74 -21 -84 -20 -31 4
24 11 41 23 38 26 -3 3 -14 1 -24 -4 -10 -6 -57 -21 -103 -33 -114 -31 -328
-34 -407 -6 -29 10 -56 23 -59 29 -4 6 -2 8 3 5 6 -4 14 0 17 9 5 13 2 15 -15
11 -11 -3 -18 -3 -14 1 4 4 30 8 58 8 85 2 203 35 382 105 59 22 104 43 102
45 -2 3 -25 -5 -52 -16 -129 -55 -275 -99 -387 -114 -55 -8 -204 24 -252 54
-58 35 -99 98 -90 135 4 18 13 25 30 25 15 0 22 5 19 13 -4 9 44 12 217 13
123 1 246 6 273 11 35 7 -13 9 -165 5 -118 -3 -213 -2 -210 1 3 3 50 10 105
17 103 12 239 40 310 65 197 68 446 179 442 198 -1 5 4 12 12 15 8 3 11 0 7
-7 -5 -7 -1 -9 9 -4 12 4 13 8 5 13 -9 5 -5 12 12 21 14 8 45 25 69 38 24 13
46 27 49 32 8 12 259 139 276 139 8 0 14 4 14 9 0 11 56 32 64 24 3 -4 6 -1 6
6 0 6 6 11 13 9 6 -1 26 3 42 9 17 6 57 15 90 19 33 4 65 8 70 9 6 1 17 3 25
4 12 1 12 3 2 10 -9 5 9 11 50 15 34 4 67 13 71 19 6 9 10 9 14 0 5 -15 33
-18 33 -4 0 5 -6 12 -12 14 -8 3 -6 6 4 6 9 1 21 -6 26 -15 7 -13 13 -14 29
-5 16 8 24 7 34 -5 10 -12 24 -15 56 -10 24 3 43 2 43 -3 0 -5 17 -15 38 -22
26 -9 32 -14 19 -17 -18 -4 -18 -4 0 -18 16 -14 13 -14 -32 -7 -76 12 -391 4
-465 -11 l-65 -13 110 6 c117 6 270 6 320 -2 17 -2 59 -12 95 -22 36 -10 75
-18 87 -19 11 -1 20 -3 18 -6 -2 -3 20 -14 48 -24 132 -47 284 -145 442 -285
124 -111 154 -150 70 -95 -30 20 -58 35 -61 32 -2 -3 19 -20 48 -39 60 -38
190 -158 183 -169 -3 -4 5 -16 17 -26 12 -11 18 -13 14 -7 -4 7 -3 13 2 13 15
0 33 -26 24 -35 -4 -5 -2 -5 5 -1 7 4 36 -15 71 -46 85 -77 122 -107 122 -100
0 3 10 -4 23 -15 76 -69 268 -163 426 -208 88 -26 130 -32 101 -16 -8 5 -38
13 -65 19 -28 6 -64 16 -80 23 -17 6 -37 13 -45 14 -55 7 -397 216 -385 234 3
5 -18 28 -45 51 -33 27 -48 46 -42 54 7 10 8 28 2 41 -1 3 -3 9 -4 15 0 5 -10
15 -20 23 -19 14 -33 52 -15 41 5 -3 7 -9 4 -14 -3 -4 6 -15 20 -24 29 -19 39
-20 28 -3 -14 22 -12 36 5 30 8 -4 13 -2 9 3 -7 11 38 13 49 2 12 -13 26 -9
18 5 -4 7 -3 9 2 4 5 -5 9 -14 9 -20 0 -5 5 -12 12 -14 8 -3 11 3 8 16 -3 18
-1 20 15 11 24 -13 33 -13 25 0 -3 5 27 -5 67 -21 89 -37 267 -79 328 -78 25
1 34 3 20 5 -137 21 -187 31 -263 55 -48 16 -100 36 -115 44 -29 17 -26 17 84
-21 73 -24 296 -65 349 -63 17 1 -23 9 -87 20 -163 25 -222 42 -392 111 -247
99 -315 138 -551 317 -77 59 -167 127 -200 152 -192 146 -354 201 -590 200
-295 0 -488 -80 -890 -367 -94 -67 -195 -130 -195 -122 0 2 25 21 56 43 31 22
97 71 148 110 96 73 275 207 316 238 37 27 1 8 -49 -26 -43 -29 -43 -29 -36
-6 8 24 8 24 -14 5 -12 -11 -19 -26 -17 -33 3 -7 1 -13 -3 -13 -5 0 -11 6 -14
13 -3 8 -13 3 -30 -15 -14 -16 -33 -28 -42 -28 -8 0 -15 -7 -15 -16 0 -8 -4
-13 -9 -10 -9 6 -74 -38 -66 -45 2 -3 -5 -5 -16 -5 -13 0 -18 5 -14 14 3 8
-13 -2 -36 -22 -22 -21 -43 -35 -46 -33 -5 6 67 117 101 156 l21 24 -26 -17
c-15 -9 -44 -46 -65 -82 -85 -146 -240 -285 -384 -346 -121 -51 -205 -78 -208
-68 -2 6 -10 6 -20 1 -9 -5 -37 -11 -62 -14 -25 -2 -37 -2 -27 0 9 2 15 8 13
12 -3 4 31 28 75 55 43 26 79 49 79 50 0 2 -39 -16 -87 -40 -99 -49 -156 -67
-136 -43 10 12 6 14 -27 12 -22 -1 -42 2 -45 7 -3 6 1 7 10 4 9 -4 15 -2 13 4
-2 5 25 30 58 55 124 91 231 261 270 427 9 41 21 83 26 93 7 13 5 22 -6 30
-13 10 -8 27 40 122 30 60 54 119 53 130 0 11 -10 -5 -22 -35 -90 -225 -159
-277 -407 -310 -41 -6 -87 -13 -102 -16 -23 -4 -27 -3 -22 10 3 9 13 16 20 16
8 0 42 13 77 28 115 53 215 190 237 328 12 70 -2 193 -30 266 -67 177 -260
329 -437 345 -43 3 -73 11 -73 17 0 6 -4 4 -10 -4 -19 -30 -19 -2 1 49 37 99
61 134 157 235 90 94 91 96 22 32 -41 -39 -90 -85 -109 -103 -45 -44 -65 -44
-58 1 5 33 5 34 -14 18 -10 -9 -19 -22 -19 -29 0 -7 -4 -13 -10 -13 -5 0 -10
-10 -11 -22 -1 -19 -2 -18 -10 7 -23 74 -10 259 26 370 6 20 6 20 -6 1 -7 -11
-20 -49 -29 -85 l-16 -65 -13 57 c-7 31 -17 57 -22 57 -6 0 -7 -6 -2 -12 13
-21 3 -336 -13 -387 -16 -53 -12 -66 6 -19 8 18 16 100 19 183 5 119 8 138 13
95 4 -30 12 -102 19 -160 7 -58 13 -132 14 -165 l0 -60 -45 -6 c-25 -4 -65
-15 -90 -24 l-45 -16 34 31 c18 17 30 34 27 37 -4 4 -25 -11 -49 -34 -23 -22
-69 -56 -102 -76 -67 -40 -199 -146 -192 -154 3 -3 34 20 70 50 123 104 238
157 388 179 264 38 524 -138 583 -395 15 -63 22 -161 8 -112 -4 14 -9 3 -18
-35 -7 -32 -12 -44 -13 -29 0 14 -7 41 -13 60 l-13 34 -5 -45 -6 -45 -14 45
-15 45 -3 -45 -4 -45 -13 35 c-13 33 -14 34 -21 12 -7 -23 -7 -22 -23 10 l-16
33 -6 -35 c-4 -19 -7 -28 -8 -19 0 8 -8 24 -17 35 -15 18 -15 17 -10 -13 5
-27 3 -31 -12 -26 -9 4 -26 12 -37 20 -28 19 -37 16 -25 -8 14 -26 7 -35 -10
-14 -7 8 -19 15 -27 15 -13 0 -13 -2 -2 -16 12 -15 11 -16 -8 -10 -13 4 -26 1
-36 -8 -11 -11 -17 -12 -26 -3 -8 8 -11 7 -11 -3 0 -9 -5 -8 -16 6 -13 15 -15
16 -10 2 3 -12 1 -15 -9 -11 -8 3 -13 8 -10 12 2 4 -44 7 -103 7 -96 -1 -113
-4 -164 -29 -114 -56 -224 -204 -248 -336 -32 -173 2 -380 90 -549 27 -53 43
-88 34 -77 -36 46 -98 185 -122 274 -21 81 -25 116 -24 226 1 137 4 177 12
185 11 10 40 94 34 99 -2 3 -7 -5 -11 -17 -3 -12 -9 -22 -14 -22 -5 0 -9 -11
-9 -25 0 -14 -4 -25 -9 -25 -13 0 -33 -64 -26 -82 3 -8 1 -25 -5 -39 -9 -20
-10 -21 -7 -3 3 12 1 28 -4 35 -7 11 -9 9 -10 -6 l0 -20 -8 20 c-8 19 -8 19
-16 -5 -4 -14 -13 -28 -19 -32 -8 -5 -8 -13 2 -28 10 -17 10 -20 -3 -20 -8 0
-15 7 -15 15 0 8 -4 15 -10 15 -6 0 -10 -30 -11 -67 -1 -82 -16 -50 -18 37 -1
30 -6 62 -11 70 -7 10 -10 -20 -11 -95 -1 -120 -4 -126 -14 -22 -8 77 -24 90
-27 20 -1 -48 -1 -48 -8 12 -6 56 -7 57 -8 16 -3 -66 -20 -38 -25 39 -2 36 -3
8 -3 -63 2 -122 1 -125 -12 -81 -7 26 -17 99 -21 163 l-8 116 -2 -101 c0 -55
4 -127 9 -160 6 -32 12 -75 15 -94 4 -32 4 -33 -6 -10 -18 42 -39 210 -39 305
1 227 91 475 226 624 20 23 32 41 26 41 -33 0 -161 -187 -209 -305 -18 -44
-32 -74 -33 -67 0 6 -7 12 -16 12 -14 0 -16 10 -12 63 3 34 8 71 12 82 3 11
-1 4 -10 -15 l-17 -35 -9 35 c-5 19 -10 105 -11 190 -1 122 3 169 17 220 22
82 62 175 93 218 28 37 24 42 -8 10 -14 -14 -20 -17 -17 -7 12 32 -21 197 -53
268 -18 39 -34 70 -36 68 -2 -2 7 -28 21 -58 36 -83 48 -151 46 -274 0 -11 -4
-36 -9 -55 -8 -31 -9 -27 -10 33 -1 37 -5 67 -10 67 -5 0 -8 -20 -7 -44 2 -24
-1 -50 -5 -58 -6 -8 -9 2 -9 30 0 53 -16 55 -25 2 -8 -45 -25 -54 -25 -13 0
14 -3 24 -6 20 -3 -3 -6 -37 -6 -74 l0 -68 -14 99 c-19 140 -22 139 -19 -4 4
-122 3 -123 -5 -39 -14 132 -26 143 -23 22 l2 -108 -10 90 c-12 115 -20 133
-15 33 4 -99 -10 -103 -16 -5 -3 40 -9 81 -15 91 -8 14 -9 6 -7 -35 4 -53 4
-54 -11 -24 -8 17 -14 42 -15 58 0 15 -4 27 -10 27 -5 0 -10 7 -10 15 0 18
-20 20 -21 3 -2 -24 3 -53 11 -63 10 -13 34 -134 28 -140 -3 -3 -14 33 -26 80
-23 96 -63 161 -124 205 -56 41 -100 53 -174 48 -76 -5 -108 -25 -141 -88 -21
-39 -23 -40 -23 -17 0 27 14 48 60 94 l25 25 -27 -17 c-15 -9 -34 -28 -43 -41
-10 -15 -22 -23 -31 -20 -8 3 -14 0 -14 -7 0 -8 -4 -6 -10 3 -8 12 -10 10 -11
-10 -1 -20 -3 -18 -9 10 -4 19 -8 27 -9 17 0 -10 -6 -15 -12 -11 -6 3 -24 -3
-40 -15 -55 -40 -61 -32 -57 72 3 73 9 103 29 148 87 186 305 280 519 225 63
-16 77 -14 28 4 -58 21 -205 24 -276 6 -125 -32 -226 -115 -284 -233 -31 -63
-33 -75 -33 -168 0 -93 2 -105 33 -167 22 -45 52 -84 93 -122 33 -31 56 -56
51 -56 -5 0 -17 9 -27 20 -10 12 -25 18 -32 15 -8 -2 -12 -1 -9 3 6 10 -3 22
-34 47 l-25 20 18 -21 c9 -11 14 -24 10 -28 -5 -4 -1 -6 7 -4 8 1 14 -4 15
-11 0 -8 39 -35 87 -60 48 -25 86 -46 84 -48 -2 -2 -25 5 -52 15 -27 10 -61
18 -76 17 -15 0 -24 3 -22 7 3 4 1 8 -5 8 -17 0 -24 -22 -10 -31 8 -5 10 -9 4
-9 -19 0 -73 62 -68 79 3 11 2 12 -4 3 -12 -16 -36 10 -98 106 -63 99 -85 164
-85 255 0 104 33 184 108 263 11 12 19 30 18 40 -3 21 34 65 47 57 5 -3 -4
-14 -20 -24 -15 -10 -22 -19 -15 -19 7 0 10 -5 6 -12 -4 -7 -3 -8 5 -4 6 4 9
11 6 16 -7 11 115 59 194 75 63 13 64 14 16 10 -27 -2 -79 -13 -115 -24 -77
-25 -73 -24 -64 -9 4 7 3 8 -4 4 -7 -4 -12 -2 -12 5 0 7 -15 -2 -34 -20 -34
-33 -52 -30 -39 6 6 16 5 16 -10 4 -10 -8 -20 -11 -24 -7 -3 3 -1 6 6 6 7 0 9
5 6 10 -4 6 1 24 9 41 9 17 13 36 9 42 -3 5 -1 7 4 4 12 -8 26 20 17 34 -3 5
3 9 13 9 12 0 14 3 6 8 -16 10 24 75 40 65 7 -3 9 -3 5 2 -4 4 -2 17 4 29 14
28 -1 12 -46 -47 -40 -54 -47 -53 -14 2 48 82 171 186 279 236 30 14 43 22 29
19 -61 -16 -170 -83 -239 -148 -34 -32 -41 -36 -31 -16 16 32 289 303 357 354
29 22 51 42 48 44 -6 7 -110 -81 -235 -198 -130 -120 -199 -214 -265 -353 -52
-109 -74 -191 -85 -307 l-7 -85 -2 86 c-2 158 55 321 179 508 113 170 139 202
319 390 210 220 247 268 64 84 -78 -79 -143 -143 -146 -143 -2 0 -3 12 0 28 3
25 3 26 -6 5 -21 -47 -28 -21 -10 36 25 82 41 210 37 306 -3 75 -3 72 -10 -45z
m-431 -942 c-3 -8 -6 -5 -6 6 -1 11 2 17 5 13 3 -3 4 -12 1 -19z m-30 -60 c-3
-8 -6 -5 -6 6 -1 11 2 17 5 13 3 -3 4 -12 1 -19z m1104 -679 c-5 -13 -10 -19
-10 -12 -1 15 10 45 15 40 3 -2 0 -15 -5 -28z m-34 -26 c-3 -10 -5 -2 -5 17 0
19 2 27 5 18 2 -10 2 -26 0 -35z m-692 -93 c-3 -5 -12 -10 -18 -10 -7 0 -6 4
3 10 19 12 23 12 15 0z m685 -157 c-7 -37 -33 -124 -57 -193 -24 -69 -53 -154
-64 -190 l-19 -65 6 50 c10 92 46 229 92 353 25 67 47 120 50 118 2 -3 -1 -36
-8 -73z m6 -275 c-4 -46 -14 -126 -23 -178 -34 -205 -27 -409 19 -558 11 -35
17 -66 15 -68 -6 -6 -29 68 -53 166 -24 100 -25 303 -1 475 21 154 38 245 45
245 2 0 1 -37 -2 -82z m-62 -159 c-35 -263 -30 -407 21 -584 14 -48 24 -89 22
-91 -2 -3 -16 33 -30 78 -60 192 -72 366 -37 561 17 100 22 132 31 187 1 9 3
6 6 -6 2 -12 -4 -77 -13 -145z m-24 44 c-6 -43 -18 -114 -27 -157 -12 -59 -14
-120 -11 -240 4 -151 3 -157 -8 -91 -14 80 -20 247 -10 264 4 6 5 24 1 40 -3
17 -2 32 4 36 6 3 11 14 11 23 0 24 43 212 48 208 2 -3 -2 -40 -8 -83z m73
-280 c-8 -91 -13 -92 -13 -5 0 40 4 72 10 72 5 0 7 -27 3 -67z m1527 -25 c0
-39 -48 -181 -84 -248 -19 -36 -51 -84 -71 -107 -32 -37 -131 -114 -185 -143
-34 -18 -22 -4 23 26 23 16 47 34 52 40 6 5 27 22 47 37 20 15 51 48 68 74
l32 48 -28 -25 c-16 -14 -30 -28 -32 -33 -2 -4 -8 -5 -12 -2 -5 3 -11 1 -15
-5 -3 -5 0 -10 7 -10 14 0 -44 -40 -64 -44 -7 -2 -20 -6 -28 -9 -44 -19 -100
-35 -96 -28 3 4 23 14 46 21 22 7 45 19 51 27 12 14 -91 -22 -164 -58 l-42
-20 29 25 c16 13 47 33 68 43 21 10 38 21 38 25 0 8 -49 -12 -114 -46 -70 -37
-55 -14 22 33 37 22 64 41 59 41 -13 0 -97 -42 -103 -51 -9 -16 -26 -10 -20 7
4 10 1 14 -6 11 -7 -2 -12 -11 -10 -20 1 -8 -2 -18 -8 -22 -6 -3 -7 0 -4 9 3
9 2 16 -4 16 -6 0 -13 -6 -15 -12 -3 -7 -6 -8 -6 -2 -1 6 15 29 35 52 48 57
35 53 -21 -5 -25 -27 -45 -43 -45 -37 0 6 7 17 15 24 8 7 15 17 15 23 0 6 -12
0 -27 -14 l-27 -24 17 28 c50 81 51 84 18 48 -17 -18 -31 -38 -31 -44 0 -6 -3
-8 -6 -5 -3 3 5 26 17 49 15 30 17 40 7 31 -9 -7 -22 -26 -28 -43 -10 -22 -15
-27 -21 -17 -7 10 -9 10 -9 -1 0 -8 -3 -12 -6 -9 -3 3 2 22 10 42 24 57 10 42
-34 -36 -51 -94 -52 -81 0 22 43 86 46 95 28 84 -7 -4 -8 -3 -4 5 4 6 11 9 15
6 5 -2 13 7 20 21 7 17 17 24 26 20 8 -3 14 -2 12 2 -1 4 2 7 6 7 5 0 13 7 18
16 18 33 129 68 281 88 141 19 191 35 243 75 28 22 45 20 45 -6z m1553 -25
c-7 -2 -19 -2 -25 0 -7 3 -2 5 12 5 14 0 19 -2 13 -5z m-400 -40 c-7 -2 -19
-2 -25 0 -7 3 -2 5 12 5 14 0 19 -2 13 -5z m414 -39 c-3 -3 -12 -4 -19 -1 -8
3 -5 6 6 6 11 1 17 -2 13 -5z m46 -11 c-7 -2 -19 -2 -25 0 -7 3 -2 5 12 5 14
0 19 -2 13 -5z m101 -2 c4 -5 -3 -7 -14 -4 -23 6 -26 13 -6 13 8 0 17 -4 20
-9z m-3066 -86 c-3 -3 -9 2 -12 12 -6 14 -5 15 5 6 7 -7 10 -15 7 -18z m1962
1 c0 -2 -7 -7 -16 -10 -8 -3 -12 -2 -9 4 6 10 25 14 25 6z m-1299 -79 c-10 -9
-11 -8 -5 6 3 10 9 15 12 12 3 -3 0 -11 -7 -18z m1145 -32 c-13 -25 -66 -73
-66 -60 0 4 -8 1 -17 -6 -16 -13 -17 -12 -4 4 7 9 19 17 25 17 6 0 24 16 40
35 35 42 39 44 22 10z m-26 -99 c0 -2 -8 -10 -17 -17 -16 -13 -17 -12 -4 4 13
16 21 21 21 13z m-740 -26 c-8 -5 -19 -10 -25 -10 -5 0 -3 5 5 10 8 5 20 10
25 10 6 0 3 -5 -5 -10z m1333 -241 c-12 -12 -26 -18 -32 -14 -17 10 6 36 25
28 8 -3 14 1 14 8 0 7 3 9 7 5 4 -3 -3 -16 -14 -27z m-57 -28 c0 -11 -4 -17
-9 -14 -5 3 -23 -8 -40 -23 -21 -19 -19 -15 8 14 21 23 39 42 40 42 0 0 1 -9
1 -19z m-1596 -178 c0 -9 -87 57 -115 88 -19 20 -3 10 43 -25 39 -32 72 -60
72 -63z m1330 43 c0 -3 -4 -8 -10 -11 -5 -3 -10 -1 -10 4 0 6 5 11 10 11 6 0
10 -2 10 -4z m1961 -43 c13 -16 12 -17 -3 -4 -10 7 -18 15 -18 17 0 8 8 3 21
-13z"/>
<path d="M3087 2763 c-4 -3 -7 -11 -7 -17 0 -6 5 -5 12 2 6 6 9 14 7 17 -3 3
-9 2 -12 -2z"/>
<path d="M3167 2739 c-22 -11 -36 -23 -33 -26 5 -5 76 35 76 43 0 6 -1 5 -43
-17z"/>
<path d="M3384 2704 c-18 -14 -18 -14 6 -3 31 14 36 19 24 19 -6 0 -19 -7 -30
-16z"/>
<path d="M747 5765 c15 -30 29 -53 31 -51 4 5 -46 106 -53 106 -3 0 7 -25 22
-55z"/>
<path d="M1820 5718 c-19 -24 -26 -37 -17 -29 19 15 61 71 54 71 -2 0 -19 -19
-37 -42z"/>
<path d="M1057 5673 c-4 -3 -7 -11 -7 -17 0 -6 5 -5 12 2 6 6 9 14 7 17 -3 3
-9 2 -12 -2z"/>
<path d="M9491 5664 c0 -11 3 -14 6 -6 3 7 2 16 -1 19 -3 4 -6 -2 -5 -13z"/>
<path d="M1151 5654 c0 -11 3 -14 6 -6 3 7 2 16 -1 19 -3 4 -6 -2 -5 -13z"/>
<path d="M200 5627 c0 -2 24 -24 53 -48 28 -24 46 -36 38 -26 -16 20 -91 81
-91 74z"/>
<path d="M1086 5563 c-9 -37 -19 -77 -22 -88 -4 -15 -3 -16 4 -5 13 22 46 149
40 156 -3 2 -13 -26 -22 -63z"/>
<path d="M1162 5620 c0 -8 4 -26 8 -40 6 -20 8 -21 8 -5 0 11 -3 29 -8 40 -5
12 -8 14 -8 5z"/>
<path d="M772 5588 c-10 -30 -10 -31 3 -14 13 17 21 46 12 46 -1 0 -8 -15 -15
-32z"/>
<path d="M2189 5583 c-13 -16 -12 -17 4 -4 16 13 21 21 13 21 -2 0 -10 -8 -17
-17z"/>
<path d="M2149 5543 c-13 -16 -12 -17 4 -4 9 7 17 15 17 17 0 8 -8 3 -21 -13z"/>
<path d="M734 5508 l-19 -23 23 19 c21 18 27 26 19 26 -2 0 -12 -10 -23 -22z"/>
<path d="M330 5516 c0 -2 8 -10 18 -17 15 -13 16 -12 3 4 -13 16 -21 21 -21
13z"/>
<path d="M430 5405 c13 -14 26 -25 28 -25 3 0 -5 11 -18 25 -13 14 -26 25 -28
25 -3 0 5 -11 18 -25z"/>
<path d="M1865 5382 c-29 -10 -175 -86 -171 -89 3 -4 185 83 194 92 6 6 5 5
-23 -3z"/>
<path d="M475 5350 c10 -11 20 -20 23 -20 3 0 -3 9 -13 20 -10 11 -20 20 -23
20 -3 0 3 -9 13 -20z"/>
<path d="M540 5251 c11 -22 24 -42 29 -46 6 -3 -2 15 -15 40 -31 55 -42 60
-14 6z"/>
<path d="M9511 5272 c-1 -7 -17 -38 -37 -69 -19 -30 -33 -57 -31 -59 8 -8 79
116 74 129 -4 9 -6 9 -6 -1z"/>
<path d="M1905 5225 c-5 -2 -41 -7 -80 -11 -38 -4 -65 -9 -59 -11 7 -2 47 1
90 6 61 8 84 7 99 -3 11 -7 28 -15 38 -19 33 -12 6 14 -29 29 -34 14 -41 15
-59 9z"/>
<path d="M1698 5213 c6 -2 18 -2 25 0 6 3 1 5 -13 5 -14 0 -19 -2 -12 -5z"/>
<path d="M1648 5203 c6 -2 18 -2 25 0 6 3 1 5 -13 5 -14 0 -19 -2 -12 -5z"/>
<path d="M1859 5137 c-19 -18 -41 -41 -48 -52 -9 -13 -5 -11 10 5 14 14 39 37
57 53 19 15 30 27 25 27 -4 -1 -24 -15 -44 -33z"/>
<path d="M5290 5075 c-11 -13 -8 -13 21 -3 44 15 48 18 17 18 -14 0 -31 -7
-38 -15z"/>
<path d="M2719 5033 c-14 -9 -32 -25 -39 -37 -10 -17 -7 -16 16 5 16 15 38 31
49 37 11 6 16 11 10 11 -5 0 -22 -7 -36 -16z"/>
<path d="M5448 4973 c7 -3 16 -2 19 1 4 3 -2 6 -13 5 -11 0 -14 -3 -6 -6z"/>
<path d="M9445 4930 c-3 -6 1 -7 9 -4 18 7 21 14 7 14 -6 0 -13 -4 -16 -10z"/>
<path d="M3300 4876 c0 -9 5 -16 10 -16 6 0 10 4 10 9 0 6 -4 13 -10 16 -5 3
-10 -1 -10 -9z"/>
<path d="M3274 4828 l-19 -23 23 19 c21 18 27 26 19 26 -2 0 -12 -10 -23 -22z"/>
<path d="M961 4824 c0 -11 3 -14 6 -6 3 7 2 16 -1 19 -3 4 -6 -2 -5 -13z"/>
<path d="M1221 4777 c-13 -21 -12 -21 5 -5 10 10 16 20 13 22 -3 3 -11 -5 -18
-17z"/>
<path d="M1242 4767 c-25 -26 -30 -46 -7 -27 8 7 15 8 15 2 0 -5 -7 -15 -15
-22 -8 -7 -15 -18 -15 -24 1 -6 12 3 25 19 25 31 33 51 15 40 -14 -9 -13 8 2
23 7 7 10 12 7 12 -3 0 -15 -10 -27 -23z"/>
<path d="M1555 4770 c-13 -6 -15 -9 -5 -9 8 0 22 4 30 9 18 12 2 12 -25 0z"/>
<path d="M1900 4686 c0 -2 7 -7 16 -10 8 -3 12 -2 9 4 -6 10 -25 14 -25 6z"/>
<path d="M1971 4648 c9 -7 36 -29 60 -48 23 -19 55 -53 71 -74 29 -40 38 -43
16 -4 -17 28 -93 99 -132 121 -17 11 -24 13 -15 5z"/>
<path d="M4180 4617 c0 -2 15 -14 33 -27 20 -15 27 -17 18 -6 -13 16 -51 41
-51 33z"/>
<path d="M9359 4573 c-13 -16 -12 -17 4 -4 9 7 17 15 17 17 0 8 -8 3 -21 -13z"/>
<path d="M4260 4550 c6 -11 13 -20 16 -20 2 0 0 9 -6 20 -6 11 -13 20 -16 20
-2 0 0 -9 6 -20z"/>
<path d="M2546 4535 c-9 -26 -7 -32 5 -12 6 10 9 21 6 23 -2 3 -7 -2 -11 -11z"/>
<path d="M3272 4466 c-23 -39 -33 -60 -21 -46 26 30 73 110 68 114 -2 2 -23
-28 -47 -68z"/>
<path d="M2514 4458 c-10 -23 -38 -69 -62 -100 l-42 -58 49 32 c27 18 47 36
45 40 -3 4 2 20 10 36 8 16 13 32 10 35 -3 3 0 15 6 27 6 12 10 24 7 26 -2 2
-12 -15 -23 -38z"/>
<path d="M6535 4490 c22 -4 45 -5 52 -3 7 3 25 -3 41 -12 32 -21 66 -55 55
-55 -4 0 -1 -5 7 -10 8 -5 10 -10 4 -10 -6 0 -24 12 -40 28 -27 26 -27 26 -11
2 45 -66 66 -108 72 -140 6 -38 18 -84 31 -115 7 -19 5 -18 -18 3 -13 12 -30
22 -37 22 -8 0 -11 6 -7 17 4 10 4 14 0 11 -4 -4 -38 21 -76 57 -42 38 -99 78
-146 102 -42 21 -80 42 -84 48 -5 6 -11 6 -18 -1 -7 -7 14 -23 75 -53 98 -48
192 -130 251 -219 90 -133 139 -194 188 -229 33 -26 30 -27 -33 -12 -24 5 -57
11 -72 13 -16 2 -37 10 -46 17 -17 13 -17 13 -3 -6 23 -30 32 -35 70 -35 19 0
71 -11 115 -25 46 -14 104 -25 138 -25 52 0 57 -2 58 -22 1 -22 1 -22 8 1 4
16 15 25 31 27 14 1 54 6 89 10 54 6 63 5 56 -7 -7 -11 -6 -12 6 -3 8 6 23 10
34 8 71 -11 99 -199 50 -339 -89 -251 -416 -498 -706 -535 -208 -26 -432 5
-578 79 -51 27 -54 37 -3 15 136 -59 244 -75 354 -50 214 48 361 184 400 369
10 45 10 62 0 77 -7 11 -12 30 -12 42 0 13 -13 46 -30 74 -36 64 -107 104
-181 104 -63 0 -90 -11 -143 -60 -36 -34 -49 -40 -73 -35 -15 3 -3 -4 27 -16
30 -12 64 -28 75 -35 11 -8 24 -14 30 -14 5 1 -1 7 -15 15 -14 8 -19 14 -12
15 23 0 66 -27 102 -65 l35 -37 -37 18 c-20 9 -35 21 -32 25 7 12 -12 20 -31
13 -13 -5 -5 -14 34 -36 28 -16 51 -31 51 -33 0 -2 -34 12 -76 31 -101 46
-105 42 -11 -10 43 -24 83 -49 90 -55 7 -7 -4 -4 -23 7 -40 24 -140 64 -140
57 0 -3 32 -21 70 -40 39 -19 70 -37 70 -39 0 -3 -43 13 -95 34 -52 21 -95 37
-95 35 0 -3 38 -22 85 -44 47 -22 85 -43 85 -46 0 -5 -9 -1 -140 55 -111 47
-115 46 -15 -6 92 -47 91 -53 -2 -15 -73 29 -66 19 12 -18 82 -38 85 -48 5
-15 -84 34 -87 29 -6 -12 37 -19 65 -38 62 -41 -3 -3 -11 -1 -18 4 -14 12
-156 73 -167 72 -3 0 33 -20 82 -45 48 -24 87 -46 87 -49 0 -2 -43 16 -96 41
-53 24 -99 43 -101 40 -2 -2 26 -18 63 -35 37 -17 65 -34 62 -37 -3 -3 -44 13
-89 36 -46 22 -75 33 -64 25 11 -9 46 -30 79 -46 32 -17 56 -33 53 -36 -3 -2
-51 18 -107 46 -56 28 -110 51 -119 51 -10 0 -21 3 -25 8 -4 4 -12 8 -17 8
-22 3 -23 5 -11 13 11 7 10 9 -3 14 -9 4 -13 3 -10 -3 10 -16 -4 -12 -52 17
-38 22 -62 28 -142 32 -68 4 -109 2 -141 -8 -25 -8 -92 -14 -150 -15 -100 -1
-109 1 -192 37 -48 20 -90 37 -95 37 -15 -1 245 -165 349 -220 57 -30 138 -79
181 -107 42 -29 80 -53 82 -53 10 0 85 -53 82 -57 -2 -2 -42 13 -88 33 -135
57 -331 119 -352 110 -7 -2 -5 -5 4 -5 29 -2 223 -68 349 -121 69 -28 222 -98
340 -155 354 -171 592 -263 854 -329 218 -56 343 -71 462 -56 210 26 448 110
719 255 110 58 381 228 405 253 10 11 6 10 -15 -3 -527 -331 -799 -448 -1125
-486 -92 -10 -121 -10 -220 5 -112 18 -350 74 -400 96 -21 9 -18 10 20 5 53
-6 330 -25 345 -24 6 1 -3 5 -20 10 -23 6 -16 7 28 4 31 -2 55 0 53 4 -3 4 34
13 82 20 114 18 246 54 335 91 39 17 90 39 112 48 90 38 239 121 232 128 -2 3
-31 -11 -64 -31 -33 -20 -117 -60 -186 -90 -262 -113 -497 -161 -756 -152
-175 5 -280 25 -432 81 -120 44 -272 106 -279 113 -3 4 4 3 15 -1 11 -4 90
-18 175 -32 459 -73 735 -44 1055 111 265 129 448 298 564 523 22 45 41 84 41
89 0 4 -21 -30 -46 -77 -121 -227 -306 -397 -565 -519 -57 -27 -115 -52 -129
-56 -14 -3 21 16 77 44 150 73 230 129 322 223 110 114 216 259 169 232 -8 -4
-10 -3 -5 2 5 5 14 9 20 9 12 0 91 151 102 195 3 14 -16 -21 -44 -77 -27 -57
-52 -103 -56 -103 -3 0 11 31 30 70 34 68 86 226 84 259 0 9 -2 12 -4 6 -2 -5
-18 -55 -35 -109 -37 -116 -78 -197 -157 -310 -58 -84 -223 -256 -244 -256 -7
0 -5 9 7 23 l19 22 -22 -19 c-13 -10 -20 -22 -18 -26 6 -9 -108 -83 -140 -92
-11 -3 -29 -9 -40 -13 l-20 -8 20 17 c19 16 19 16 -7 5 -15 -7 -25 -15 -22
-20 2 -4 -7 -6 -22 -3 -14 3 -23 1 -21 -3 3 -4 -9 -9 -26 -10 -26 -1 -28 0
-12 7 20 9 20 9 0 9 -11 1 -29 -5 -40 -12 -30 -20 -57 -29 -49 -16 4 8 -1 9
-17 5 -23 -7 -23 -7 -5 8 22 18 40 21 31 6 -9 -15 7 -11 30 6 19 16 19 16 -5
10 -24 -7 -24 -6 -6 8 11 9 14 16 7 16 -7 0 -9 5 -5 11 3 6 -8 4 -24 -5 -36
-18 -46 -20 -37 -6 3 6 1 10 -5 10 -6 0 -8 4 -5 10 4 6 -1 7 -11 3 -12 -4 -15
-3 -10 5 4 7 2 10 -7 6 -8 -3 -14 2 -14 11 0 9 6 14 13 11 8 -3 16 -2 18 3 7
11 -27 10 -41 -2 -8 -5 -13 -6 -13 0 0 5 6 15 13 22 10 11 9 13 -4 8 -9 -3
-16 0 -16 8 0 11 5 11 28 -1 18 -9 30 -10 34 -4 3 6 3 10 -1 10 -4 0 24 33 62
73 39 39 80 88 93 107 l23 35 -26 -30 c-15 -16 -31 -29 -36 -28 -5 2 -6 -5 -3
-15 6 -15 5 -15 -11 -3 -9 8 -16 10 -15 5 3 -13 -23 -64 -33 -64 -13 0 -9 18
5 23 6 2 8 8 4 13 -9 10 -29 -16 -23 -31 2 -6 -2 -19 -9 -29 -10 -13 -15 -14
-21 -5 -4 7 -2 15 4 17 7 2 12 8 12 13 0 6 -4 8 -8 5 -4 -2 -8 4 -8 14 0 15 3
17 14 7 12 -9 13 -8 10 8 -2 11 -10 18 -19 16 -8 -2 -25 -5 -39 -7 l-25 -4 25
9 c20 6 22 10 10 15 -10 4 -15 18 -14 34 2 41 3 44 14 37 6 -4 7 -11 4 -17 -4
-7 -2 -8 4 -4 9 5 9 12 1 29 -9 16 -9 22 0 25 6 2 9 8 6 13 -3 4 2 20 11 34
25 38 54 161 54 231 0 119 -36 181 -142 245 -86 52 -130 95 -146 141 -11 32
-11 32 -8 -17 3 -45 8 -54 51 -92 26 -24 53 -43 61 -43 8 0 14 -4 14 -9 0 -5
-21 -11 -48 -15 -49 -6 -139 11 -191 38 -42 22 -107 98 -141 166 -33 66 -70
194 -70 244 0 23 -11 41 -51 78 -58 54 -122 79 -203 77 l-51 -1 40 -8z m183
-825 c17 -10 29 -22 26 -27 -3 -4 2 -8 10 -8 9 0 16 -3 17 -7 6 -53 19 -148
25 -171 2 -13 1 -21 -4 -18 -6 3 -13 23 -17 43 -8 44 -33 108 -40 102 -2 -3 4
-31 14 -63 16 -51 30 -198 18 -186 -3 3 -7 35 -10 71 -4 49 -15 85 -41 138
-20 39 -39 71 -41 71 -3 0 -1 -9 6 -21 10 -19 21 -89 13 -89 -1 0 -12 15 -23
34 -14 22 -28 33 -43 33 -19 -1 -99 19 -156 38 -20 7 6 40 50 62 49 25 152 24
196 -2z m15 -215 c-8 -9 -23 25 -22 50 0 22 2 20 13 -10 7 -19 11 -37 9 -40z
m84 18 c-3 -7 -5 -2 -5 12 0 14 2 19 5 13 2 -7 2 -19 0 -25z m-834 6 c15 -3
25 -9 23 -13 -3 -4 5 -7 17 -7 12 1 21 -4 20 -11 -2 -7 3 -10 10 -7 13 4 82
-41 82 -54 0 -11 167 -163 197 -178 15 -8 28 -17 28 -20 0 -8 -56 24 -88 51
-34 29 -51 33 -31 8 8 -10 -4 -3 -27 14 -23 18 -44 30 -47 26 -4 -3 -31 17
-61 45 -51 48 -75 65 -62 43 9 -14 -17 -20 -39 -8 -11 5 -17 6 -13 2 13 -14
-32 -39 -45 -26 -17 17 -31 13 -17 -4 7 -9 10 -18 6 -22 -3 -4 4 -18 16 -32
13 -14 -2 -4 -33 22 -31 26 -61 47 -68 47 -6 0 -11 4 -11 10 0 5 8 7 18 3 13
-4 14 -3 6 6 -6 7 -45 23 -85 36 -41 13 -66 24 -56 25 10 0 43 -9 74 -20 68
-24 82 -20 18 5 -54 20 -51 29 8 28 35 -1 38 0 17 7 l-25 8 25 1 c15 1 20 4
13 9 -14 9 92 14 130 6z m-226 -30 c-3 -3 -12 -4 -19 -1 -8 3 -5 6 6 6 11 1
17 -2 13 -5z m-119 -21 c-10 -2 -26 -2 -35 0 -10 3 -2 5 17 5 19 0 27 -2 18
-5z m554 -32 c21 -7 40 -17 44 -22 8 -14 -79 22 -96 39 -13 14 -13 15 0 5 8
-6 32 -16 52 -22z m-392 -8 c30 -11 31 -12 6 -8 -16 4 -43 13 -60 20 -23 11
-25 13 -6 8 14 -3 41 -12 60 -20z m315 -73 c27 -27 43 -50 36 -50 -7 0 -11 -6
-8 -14 7 -17 -15 -15 -37 3 -20 17 -21 3 -1 -19 13 -14 13 -17 0 -17 -8 0 -12
4 -10 8 3 3 -2 12 -11 19 -8 7 -13 19 -10 26 3 8 0 11 -9 7 -8 -3 -12 -10 -8
-16 9 -15 -48 27 -70 51 -18 20 -18 21 1 31 25 13 59 7 86 -16 16 -14 15 -11
-3 10 -42 47 -8 29 44 -23z m238 0 c37 -18 66 -34 64 -37 -3 -2 -36 12 -75 30
-39 19 -73 33 -76 30 -2 -3 -13 0 -23 6 -43 25 45 2 110 -29z m-378 -19 c-6
-5 -25 10 -25 20 0 5 6 4 14 -3 8 -7 12 -15 11 -17z m460 9 c3 -6 -1 -7 -9 -4
-18 7 -21 14 -7 14 6 0 13 -4 16 -10z m918 -116 c-4 -11 -9 -12 -19 -3 -18 15
-18 14 5 16 14 1 18 -3 14 -13z m-65 -66 c-2 -7 5 -12 14 -12 10 1 15 -2 12
-7 -3 -5 6 -14 20 -20 14 -7 23 -15 21 -19 -9 -14 26 -20 47 -9 11 6 22 8 24
6 3 -3 -21 -19 -52 -36 -64 -34 -83 -35 -32 -2 26 18 28 21 9 16 -17 -5 -21
-4 -16 5 6 9 2 9 -16 0 -35 -18 -38 -23 -9 -16 21 6 22 5 8 -4 -12 -7 -24 -8
-35 -2 -14 8 -12 12 15 26 18 9 32 19 32 22 0 2 -9 0 -21 -6 -11 -7 -23 -9
-26 -6 -3 3 2 8 11 12 9 3 16 10 16 15 0 5 -16 -3 -36 -16 -41 -28 -70 -34
-38 -7 12 9 30 22 39 27 16 10 16 11 -3 11 -11 0 -19 -3 -16 -7 2 -4 -3 -10
-11 -13 -13 -4 -13 -2 -5 14 6 10 18 24 28 29 22 13 22 13 20 -1z m-68 -18 c0
-5 -5 -10 -11 -10 -5 0 -7 5 -4 10 3 6 8 10 11 10 2 0 4 -4 4 -10z m5 -29 c3
-6 -2 -14 -11 -19 -13 -7 -7 -13 30 -30 25 -12 46 -24 46 -27 0 -3 -9 -1 -20
5 -10 6 -43 12 -72 15 -39 3 -47 2 -30 -5 28 -12 29 -20 0 -12 -14 3 -19 2
-14 -7 5 -8 1 -8 -19 1 -18 8 -22 14 -13 20 10 6 10 8 -1 8 -11 0 -9 4 5 15
10 8 26 14 34 14 9 0 5 -6 -10 -14 l-25 -15 30 7 c30 6 57 32 49 45 -3 5 -1 8
5 8 5 0 12 -4 16 -9z m45 -31 c-8 -5 -19 -10 -25 -10 -5 0 -3 5 5 10 8 5 20
10 25 10 6 0 3 -5 -5 -10z"/>
<path d="M6600 3643 c0 -6 8 -17 18 -24 16 -13 16 -13 2 6 -8 11 -16 22 -17
24 -2 2 -3 0 -3 -6z"/>
<path d="M6060 3426 c0 -2 8 -10 18 -17 15 -13 16 -12 3 4 -13 16 -21 21 -21
13z"/>
<path d="M5890 3370 l25 -21 -25 6 -25 6 29 -26 c26 -24 53 -28 29 -4 -6 6 -9
17 -7 23 3 7 -8 18 -23 24 l-28 13 25 -21z"/>
<path d="M6096 3371 c-7 -10 20 -34 41 -37 9 -2 21 -8 27 -15 8 -9 7 -10 -8
-5 -16 6 -17 4 -5 -10 9 -11 15 -12 17 -4 3 7 16 1 35 -17 27 -24 21 -8 -8 22
-17 18 -80 60 -85 57 -3 -1 -4 3 -2 8 3 12 -5 13 -12 1z"/>
<path d="M6005 3331 c6 -11 4 -13 -11 -7 -11 4 -5 -6 15 -24 35 -31 47 -38 36
-20 -4 6 3 8 17 6 13 -2 22 -10 20 -17 -2 -8 0 -11 4 -6 4 4 15 0 24 -8 14
-13 19 -13 23 -3 6 18 -29 61 -43 53 -7 -4 -23 4 -38 16 -14 13 -20 16 -13 7
7 -10 10 -18 6 -18 -5 0 -17 8 -28 18 -13 10 -17 11 -12 3z m26 -28 c13 -16
12 -17 -3 -4 -10 7 -18 15 -18 17 0 8 8 3 21 -13z m84 -23 c10 -11 16 -20 13
-20 -3 0 -13 9 -23 20 -10 11 -16 20 -13 20 3 0 13 -9 23 -20z"/>
<path d="M7346 4404 c-26 -8 -47 -17 -45 -18 2 -2 40 4 83 12 65 13 91 14 147
4 70 -12 141 -40 134 -53 -3 -3 3 -6 13 -5 9 0 16 -4 15 -11 -1 -6 4 -17 12
-23 8 -7 15 -9 15 -6 0 4 10 2 23 -4 14 -7 10 0 -13 20 -19 17 -64 45 -100 63
-54 26 -78 32 -150 34 -56 2 -101 -2 -134 -13z"/>
<path d="M7438 4393 c6 -2 18 -2 25 0 6 3 1 5 -13 5 -14 0 -19 -2 -12 -5z"/>
<path d="M7498 4383 c7 -3 16 -2 19 1 4 3 -2 6 -13 5 -11 0 -14 -3 -6 -6z"/>
<path d="M5720 4371 c0 -5 16 -13 36 -17 19 -4 38 -13 41 -20 3 -8 13 -14 23
-14 9 0 46 -13 81 -29 35 -15 89 -36 119 -47 30 -10 64 -25 75 -34 20 -15 20
-15 1 8 -11 12 -25 22 -33 22 -8 0 -12 4 -9 9 3 5 0 8 -7 7 -6 0 -59 22 -117
50 -58 29 -121 55 -140 59 -19 3 -43 9 -52 11 -10 3 -18 1 -18 -5z"/>
<path d="M9205 4370 c-3 -6 1 -7 9 -4 18 7 21 14 7 14 -6 0 -13 -4 -16 -10z"/>
<path d="M5607 4363 c-10 -3 -30 -11 -45 -20 l-27 -15 30 8 c17 4 57 13 90 20
l60 12 -45 0 c-25 0 -53 -2 -63 -5z"/>
<path d="M5960 4366 c0 -2 8 -10 18 -17 15 -13 16 -12 3 4 -13 16 -21 21 -21
13z"/>
<path d="M9154 4338 c-16 -13 -36 -28 -44 -35 -8 -7 -24 -20 -35 -29 -11 -8
-2 -6 20 7 22 12 45 29 52 37 7 8 17 11 25 6 7 -4 10 -4 6 1 -4 4 -3 14 3 22
17 20 5 16 -27 -9z"/>
<path d="M7197 4311 c-39 -44 -72 -100 -63 -109 3 -3 6 0 6 6 0 6 12 24 26 41
14 17 22 31 18 31 -4 0 7 16 26 35 19 19 31 35 28 35 -3 0 -22 -18 -41 -39z"/>
<path d="M3980 4286 c0 -2 9 -6 20 -9 11 -3 18 -1 14 4 -5 9 -34 13 -34 5z"/>
<path d="M2325 4228 l-50 -53 53 50 c48 46 57 55 49 55 -1 0 -25 -24 -52 -52z"/>
<path d="M7763 4265 c0 -7 4 -13 8 -12 4 1 15 -7 24 -18 16 -20 16 -20 6 1
-14 30 -38 48 -38 29z"/>
<path d="M9234 4264 c-18 -14 -18 -14 6 -3 31 14 36 19 24 19 -6 0 -19 -7 -30
-16z"/>
<path d="M3844 4238 l-19 -23 23 19 c12 11 22 21 22 23 0 8 -8 2 -26 -19z"/>
<path d="M1891 4231 c-8 -5 -9 -11 -3 -15 5 -3 12 1 16 9 6 17 6 18 -13 6z"/>
<path d="M3813 4195 c-3 -9 -3 -18 -1 -21 3 -3 8 4 11 16 6 23 -1 27 -10 5z"/>
<path d="M7820 4190 c6 -11 13 -20 16 -20 2 0 0 9 -6 20 -6 11 -13 20 -16 20
-2 0 0 -9 6 -20z"/>
<path d="M2090 4170 c0 -16 4 -30 8 -30 5 0 7 14 4 30 -2 17 -6 30 -8 30 -2 0
-4 -13 -4 -30z"/>
<path d="M4081 4174 c0 -11 3 -14 6 -6 3 7 2 16 -1 19 -3 4 -6 -2 -5 -13z"/>
<path d="M3802 4130 c0 -19 2 -27 5 -17 2 9 2 25 0 35 -3 9 -5 1 -5 -18z"/>
<path d="M4081 4128 c-1 -9 -9 -22 -18 -27 -10 -6 -13 -11 -7 -11 17 0 37 27
31 42 -4 8 -6 7 -6 -4z"/>
<path d="M7111 4124 c0 -11 3 -14 6 -6 3 7 2 16 -1 19 -3 4 -6 -2 -5 -13z"/>
<path d="M940 4125 c0 -2 18 -14 40 -25 22 -11 40 -18 40 -15 0 2 -18 14 -40
25 -22 11 -40 18 -40 15z"/>
<path d="M8254 4015 c0 -66 1 -92 3 -57 2 34 2 88 0 120 -2 31 -3 3 -3 -63z"/>
<path d="M3810 4087 c-1 -26 58 -100 95 -119 11 -5 3 4 -18 22 -20 17 -46 48
-57 68 -10 21 -19 33 -20 29z"/>
<path d="M4265 4014 c-30 -27 -32 -31 -9 -16 28 19 62 53 53 52 -2 -1 -22 -17
-44 -36z"/>
<path d="M910 3910 c-65 -14 -206 -61 -165 -55 22 3 63 13 90 22 28 9 75 22
105 29 30 6 44 12 30 12 -14 0 -41 -4 -60 -8z"/>
<path d="M3839 3873 c-19 -41 -23 -66 -25 -163 l-2 -115 7 115 c6 91 12 124
30 158 12 24 20 46 18 48 -2 3 -15 -17 -28 -43z"/>
<path d="M8242 3860 c0 -19 2 -27 5 -17 2 9 2 25 0 35 -3 9 -5 1 -5 -18z"/>
<path d="M668 3843 c6 -2 18 -2 25 0 6 3 1 5 -13 5 -14 0 -19 -2 -12 -5z"/>
<path d="M6755 3796 c10 -14 19 -26 22 -26 7 0 -17 39 -28 46 -6 3 -3 -5 6
-20z"/>
<path d="M374 3744 c-18 -14 -18 -14 6 -3 31 14 36 19 24 19 -6 0 -19 -7 -30
-16z"/>
<path d="M6806 3702 c13 -31 24 -64 25 -72 0 -8 3 -10 5 -4 5 13 -33 121 -45
129 -5 2 2 -21 15 -53z"/>
<path d="M1512 3685 c0 -16 2 -22 5 -12 2 9 2 23 0 30 -3 6 -5 -1 -5 -18z"/>
<path d="M5990 3600 c-18 -12 -2 -12 25 0 13 6 15 9 5 9 -8 0 -22 -4 -30 -9z"/>
<path d="M6842 3580 c0 -19 2 -27 5 -17 2 9 2 25 0 35 -3 9 -5 1 -5 -18z"/>
<path d="M5770 3585 c46 -18 64 -17 25 0 -16 8 -37 14 -45 14 -8 0 1 -7 20
-14z"/>
<path d="M5935 3576 c-16 -8 -39 -21 -50 -30 -11 -9 4 -5 33 10 28 14 52 28
52 30 0 5 -1 5 -35 -10z"/>
<path d="M4814 3514 c-18 -14 -18 -15 4 -4 12 6 22 13 22 15 0 8 -5 6 -26 -11z"/>
<path d="M6430 3510 c8 -5 20 -10 25 -10 6 0 3 5 -5 10 -8 5 -19 10 -25 10 -5
0 -3 -5 5 -10z"/>
<path d="M7208 3509 c-10 -5 -18 -8 -18 -5 0 9 -96 -43 -133 -72 -20 -16 -70
-70 -111 -120 -42 -50 -104 -114 -138 -141 -85 -69 -209 -130 -289 -141 l-64
-9 70 4 c50 2 85 11 124 30 29 15 62 25 72 22 10 -3 19 -1 19 3 0 5 13 11 30
15 30 7 47 21 37 32 -3 3 -21 -4 -40 -16 -19 -11 -38 -21 -43 -21 -4 0 13 14
39 30 50 32 62 36 52 20 -3 -5 -2 -10 4 -10 5 0 13 5 16 10 4 6 11 8 16 5 5
-4 9 -1 9 5 0 6 5 8 12 4 6 -4 8 -3 5 3 -4 6 2 18 13 28 11 10 20 28 20 39 0
13 31 56 78 106 62 67 80 81 85 67 4 -10 2 -17 -5 -17 -7 0 -7 -4 0 -13 12
-14 -11 -53 -26 -43 -5 3 -16 -2 -23 -12 -13 -15 -12 -16 4 -3 9 7 17 9 17 3
0 -15 -26 -33 -35 -24 -5 4 -5 1 -1 -5 4 -7 2 -13 -4 -13 -6 0 -15 -11 -20
-25 -5 -14 -14 -25 -19 -25 -5 0 -12 -8 -16 -17 -7 -21 21 5 133 120 77 79
149 134 86 66 -17 -19 -30 -39 -27 -46 2 -6 -4 -17 -14 -25 -10 -7 -25 -22
-33 -32 -13 -18 -13 -19 0 -11 8 4 26 17 40 29 23 19 24 20 9 1 -46 -57 -34
-59 20 -2 51 52 93 137 89 179 -3 35 -14 42 -40 27z m-68 -74 c-7 -9 -15 -13
-19 -10 -3 3 1 10 9 15 21 14 24 12 10 -5z m75 5 c-3 -5 -12 -10 -18 -10 -7 0
-6 4 3 10 19 12 23 12 15 0z m-118 -37 c-15 -16 -17 -16 -17 -1 0 9 6 18 13
21 20 7 22 -2 4 -20z m5 -35 c-6 -6 -15 -8 -19 -4 -4 4 -1 11 7 16 8 5 17 7
19 4 3 -2 -1 -10 -7 -16z m-202 -158 c0 -5 -5 -10 -11 -10 -5 0 -7 5 -4 10 3
6 8 10 11 10 2 0 4 -4 4 -10z m-40 -34 c0 -2 -7 -7 -16 -10 -8 -3 -12 -2 -9 4
6 10 25 14 25 6z"/>
<path d="M955 3479 c72 -7 94 -11 160 -34 19 -6 19 -6 1 6 -33 21 -119 39
-181 37 -60 -1 -60 -1 20 -9z"/>
<path d="M848 3473 c7 -3 16 -2 19 1 4 3 -2 6 -13 5 -11 0 -14 -3 -6 -6z"/>
<path d="M3112 3451 c-11 -7 -11 -9 2 -14 10 -4 16 -1 16 8 0 17 -1 17 -18 6z"/>
<path d="M1140 3436 c0 -3 9 -10 20 -16 11 -6 20 -8 20 -6 0 3 -9 10 -20 16
-11 6 -20 8 -20 6z"/>
<path d="M6200 3420 c8 -5 22 -9 30 -9 10 0 8 3 -5 9 -27 12 -43 12 -25 0z"/>
<path d="M516 3353 c-24 -99 -25 -105 -32 -143 -4 -19 -11 -44 -17 -55 -9 -17
-8 -18 5 -7 9 7 18 25 22 40 27 128 46 226 42 229 -2 3 -11 -26 -20 -64z"/>
<path d="M9557 3386 c-63 -26 -447 -231 -655 -350 -70 -40 -188 -103 -262
-140 -74 -38 -139 -72 -145 -76 -5 -4 -68 -38 -139 -74 -87 -44 -137 -64 -150
-60 -16 4 -17 3 -7 -4 11 -8 9 -12 -9 -22 -20 -11 -22 -10 -17 4 8 20 -7 17
-76 -14 -23 -10 -45 -16 -49 -14 -4 3 -8 0 -8 -5 0 -6 -16 -11 -36 -11 -19 0
-33 -4 -29 -9 6 -11 -11 -17 -77 -26 -27 -3 -48 -10 -48 -14 0 -12 -87 -29
-103 -19 -9 5 -35 3 -63 -4 -46 -13 -46 -13 -18 -19 l29 -7 -35 -2 c-19 -1
-44 -4 -55 -6 -78 -15 -249 -34 -350 -39 -126 -7 -334 10 -490 40 -86 16 -101
18 -93 10 19 -19 394 -74 523 -77 87 -1 88 -2 30 -8 l-60 -7 60 -2 c33 -2 85
-4 114 -6 32 -1 57 -7 59 -14 3 -8 20 -9 55 -5 94 12 43 -5 -74 -25 -317 -54
-634 -31 -912 66 -143 49 -228 92 -384 195 -75 49 -131 83 -124 74 8 -9 35
-31 60 -48 369 -249 650 -339 1066 -339 94 1 203 5 241 10 109 16 234 40 293
55 56 16 61 9 8 -11 -46 -17 -9 -16 48 2 85 25 60 8 -30 -21 -47 -16 -82 -30
-77 -32 5 -1 51 11 103 27 51 17 95 28 98 26 2 -3 -1 -5 -8 -5 -8 0 -11 -6 -7
-16 5 -14 1 -16 -26 -10 -21 4 -28 3 -19 -3 11 -7 11 -9 0 -14 -11 -4 -11 -6
1 -6 8 0 48 13 88 28 39 16 72 25 72 19 0 -5 10 -7 23 -3 12 3 -7 -10 -43 -30
-61 -33 -49 -40 14 -8 15 8 25 10 22 5 -4 -6 -61 -32 -129 -58 -67 -26 -126
-51 -131 -55 -14 -12 161 49 207 73 22 11 41 17 45 14 8 -9 -127 -66 -301
-128 -32 -11 -56 -22 -53 -25 9 -9 309 106 364 139 18 11 35 18 38 15 9 -8
-168 -93 -299 -142 -70 -26 -125 -50 -123 -52 2 -2 57 16 122 41 66 26 122 46
127 46 4 0 44 18 90 40 45 22 73 33 62 24 -31 -25 -90 -53 -189 -91 -50 -19
-95 -40 -101 -45 -7 -8 -5 -9 5 -5 8 3 61 24 118 46 56 23 106 41 110 41 20 0
-47 -32 -153 -74 -112 -43 -160 -65 -143 -66 12 0 225 83 261 102 11 5 21 7
24 4 3 -3 -39 -25 -93 -51 -100 -47 -256 -99 -399 -134 -44 -11 -68 -20 -54
-20 31 -1 352 90 441 125 34 13 63 22 65 20 8 -8 -186 -84 -507 -199 -44 -15
-84 -20 -195 -21 -77 0 -162 2 -190 6 -44 7 -47 6 -20 -4 41 -16 378 -17 425
-1 436 146 609 241 875 479 159 143 155 140 159 134 2 -3 22 12 45 33 22 20
46 37 51 37 6 0 9 4 7 9 -3 11 99 106 128 119 53 25 92 41 117 47 16 4 25 11
22 16 -3 5 3 6 12 2 11 -4 15 -2 11 4 -6 10 33 33 57 33 6 0 21 7 32 16 16 13
16 15 2 10 -32 -10 -19 3 18 19 20 8 38 15 39 15 4 0 26 -56 28 -71 2 -13 9
-19 22 -19 2 0 -2 19 -10 41 -20 56 -19 70 6 76 16 4 19 11 15 29 -5 19 0 28
26 44 17 10 35 17 40 14 4 -3 8 0 8 6 0 6 42 31 93 55 50 25 89 45 85 45 -13
0 -132 -47 -176 -69 -23 -12 -42 -19 -42 -16 0 21 315 144 448 175 64 15 115
-4 177 -65 58 -56 78 -90 100 -167 l15 -53 -5 45 c-14 110 -106 217 -220 255
-14 5 26 20 127 48 81 22 146 42 145 44 -5 5 -183 -34 -264 -58 -39 -12 -77
-19 -85 -17 -7 3 20 15 60 28 74 23 97 38 28 19 -20 -6 -50 -7 -66 -4 -17 4
-31 2 -35 -5 -5 -9 -1 -10 16 -5 13 4 21 4 17 0 -4 -4 -26 -9 -49 -10 -40 -2
-41 -2 -18 10 13 8 22 16 19 18 -3 3 -1 9 4 14 5 5 6 3 2 -4 -9 -16 -1 -16 25
-2 11 5 17 14 14 19 -3 5 0 12 6 16 8 4 9 3 5 -4 -10 -17 19 -15 54 3 34 18
40 29 10 20 -45 -14 -15 8 53 40 83 39 80 46 -6 11z m-157 -176 c0 -5 -2 -10
-4 -10 -3 0 -8 5 -11 10 -3 6 -1 10 4 10 6 0 11 -4 11 -10z m-1660 -664 c0 -2
-7 -6 -15 -10 -8 -3 -15 -1 -15 4 0 6 7 10 15 10 8 0 15 -2 15 -4z m-193 -132
c-3 -3 -12 -4 -19 -1 -8 3 -5 6 6 6 11 1 17 -2 13 -5z m313 -9 c0 -12 -19 -12
-23 0 -4 9 -1 12 9 8 7 -3 14 -7 14 -8z m-70 -35 c-8 -5 -19 -10 -25 -10 -5 0
-3 5 5 10 8 5 20 10 25 10 6 0 3 -5 -5 -10z m200 -34 c0 -3 -15 -14 -32 -26
l-33 -22 30 26 c31 27 35 29 35 22z m-50 -66 c-14 -11 -29 -20 -35 -20 -5 0 4
9 20 20 38 25 48 25 15 0z"/>
<path d="M12 3375 c-7 -14 -12 -31 -12 -38 1 -7 7 3 16 22 17 39 13 54 -4 16z"/>
<path d="M4549 3333 c-13 -16 -12 -17 4 -4 9 7 17 15 17 17 0 8 -8 3 -21 -13z"/>
<path d="M9893 3323 c9 -2 25 -2 35 0 9 3 1 5 -18 5 -19 0 -27 -2 -17 -5z"/>
<path d="M9838 3313 c6 -2 18 -2 25 0 6 3 1 5 -13 5 -14 0 -19 -2 -12 -5z"/>
<path d="M118 3303 c7 -3 16 -2 19 1 4 3 -2 6 -13 5 -11 0 -14 -3 -6 -6z"/>
<path d="M9788 3303 c6 -2 18 -2 25 0 6 3 1 5 -13 5 -14 0 -19 -2 -12 -5z"/>
<path d="M5318 3293 c6 -2 18 -2 25 0 6 3 1 5 -13 5 -14 0 -19 -2 -12 -5z"/>
<path d="M5408 3283 c12 -2 30 -2 40 0 9 3 -1 5 -23 4 -22 0 -30 -2 -17 -4z"/>
<path d="M8923 3252 c-23 -21 -73 -60 -112 -86 -67 -44 -94 -69 -52 -47 32 17
175 127 195 149 29 33 16 26 -31 -16z"/>
<path d="M5048 3273 c7 -3 16 -2 19 1 4 3 -2 6 -13 5 -11 0 -14 -3 -6 -6z"/>
<path d="M5495 3270 c17 -4 41 -8 55 -8 22 0 22 1 -5 8 -16 4 -41 8 -55 8 -22
0 -22 -1 5 -8z"/>
<path d="M7035 3230 c-3 -6 1 -7 9 -4 18 7 21 14 7 14 -6 0 -13 -4 -16 -10z"/>
<path d="M7394 3188 l-29 -33 33 29 c17 17 32 31 32 33 0 8 -8 1 -36 -29z"/>
<path d="M4222 3165 c0 -16 2 -22 5 -12 2 9 2 23 0 30 -3 6 -5 -1 -5 -18z"/>
<path d="M7409 3173 c-13 -16 -12 -17 4 -4 9 7 17 15 17 17 0 8 -8 3 -21 -13z"/>
<path d="M7415 3131 c-3 -5 -2 -12 3 -15 5 -3 9 1 9 9 0 17 -3 19 -12 6z"/>
<path d="M7745 3130 c-3 -6 1 -7 9 -4 18 7 21 14 7 14 -6 0 -13 -4 -16 -10z"/>
<path d="M4212 3100 c0 -14 2 -19 5 -12 2 6 2 18 0 25 -3 6 -5 1 -5 -13z"/>
<path d="M7550 3110 c-9 -6 -10 -10 -3 -10 6 0 15 5 18 10 8 12 4 12 -15 0z"/>
<path d="M7395 3080 c-3 -6 1 -7 9 -4 18 7 21 14 7 14 -6 0 -13 -4 -16 -10z"/>
<path d="M7540 3080 c-9 -6 -10 -10 -3 -10 6 0 15 5 18 10 8 12 4 12 -15 0z"/>
<path d="M7470 3070 c-9 -6 -10 -10 -3 -10 6 0 15 5 18 10 8 12 4 12 -15 0z"/>
<path d="M7489 3053 c-17 -10 -18 -12 -4 -7 11 4 30 6 43 5 27 -1 29 5 4 11
-11 3 -30 -1 -43 -9z"/>
<path d="M8215 3044 c-51 -34 -69 -52 -29 -29 35 20 82 54 74 55 -3 0 -23 -12
-45 -26z"/>
<path d="M4534 3044 c-18 -14 -18 -15 4 -4 12 6 22 13 22 15 0 8 -5 6 -26 -11z"/>
<path d="M2402 3030 c0 -14 2 -19 5 -12 2 6 2 18 0 25 -3 6 -5 1 -5 -13z"/>
<path d="M4451 3024 c-19 -13 -29 -24 -23 -24 6 0 24 11 39 25 35 31 28 31
-16 -1z"/>
<path d="M1043 3013 c9 -2 23 -2 30 0 6 3 -1 5 -18 5 -16 0 -22 -2 -12 -5z"/>
<path d="M973 3003 c9 -2 23 -2 30 0 6 3 -1 5 -18 5 -16 0 -22 -2 -12 -5z"/>
<path d="M359 2983 c-13 -16 -12 -17 4 -4 9 7 17 15 17 17 0 8 -8 3 -21 -13z"/>
<path d="M4166 2973 c-6 -14 -5 -15 5 -6 7 7 10 15 7 18 -3 3 -9 -2 -12 -12z"/>
<path d="M8950 2951 c0 -6 4 -12 8 -15 5 -3 9 1 9 9 0 8 -4 15 -9 15 -4 0 -8
-4 -8 -9z"/>
<path d="M9718 2870 c2 -16 6 -30 8 -30 2 0 4 14 4 30 0 17 -4 30 -8 30 -5 0
-7 -13 -4 -30z"/>
<path d="M5770 2846 c0 -2 8 -10 18 -17 15 -13 16 -12 3 4 -13 16 -21 21 -21
13z"/>
<path d="M511 2814 c0 -11 3 -14 6 -6 3 7 2 16 -1 19 -3 4 -6 -2 -5 -13z"/>
<path d="M684 2808 l-19 -23 23 19 c21 18 27 26 19 26 -2 0 -12 -10 -23 -22z"/>
<path d="M9722 2810 c0 -14 2 -19 5 -12 2 6 2 18 0 25 -3 6 -5 1 -5 -13z"/>
<path d="M908 2803 c7 -3 16 -2 19 1 4 3 -2 6 -13 5 -11 0 -14 -3 -6 -6z"/>
<path d="M521 2770 c-2 -39 25 -70 59 -70 16 0 55 12 87 26 32 14 73 33 92 41
18 8 31 16 28 19 -2 3 -39 -11 -82 -31 -43 -19 -80 -35 -83 -35 -3 0 5 12 19
28 16 18 12 16 -13 -7 -48 -44 -81 -38 -96 16 -8 30 -10 33 -11 13z"/>
<path d="M8746 2749 c-50 -16 -96 -27 -103 -24 -8 2 -12 1 -9 -4 3 -4 -24 -21
-60 -36 -35 -15 -63 -29 -61 -31 2 -2 33 8 68 23 35 14 114 43 174 64 61 21
103 38 95 38 -8 0 -55 -13 -104 -30z"/>
<path d="M8933 2735 c0 -22 2 -30 4 -17 2 12 2 30 0 40 -3 9 -5 -1 -4 -23z"/>
<path d="M8660 2740 c-8 -5 -10 -10 -5 -10 6 0 17 5 25 10 8 5 11 10 5 10 -5
0 -17 -5 -25 -10z"/>
<path d="M1221 2737 c2 -1 13 -9 24 -17 19 -14 19 -14 6 3 -7 9 -18 17 -24 17
-6 0 -8 -1 -6 -3z"/>
<path d="M1685 2622 c44 -46 114 -110 155 -143 45 -37 53 -42 20 -12 -30 26
-100 90 -155 143 l-100 95 80 -83z"/>
<path d="M7153 2683 c9 -2 25 -2 35 0 9 3 1 5 -18 5 -19 0 -27 -2 -17 -5z"/>
<path d="M8580 2660 c-8 -5 -10 -10 -5 -10 6 0 17 5 25 10 8 5 11 10 5 10 -5
0 -17 -5 -25 -10z"/>
<path d="M408 2613 c7 -3 16 -2 19 1 4 3 -2 6 -13 5 -11 0 -14 -3 -6 -6z"/>
<path d="M4732 2594 c-181 -42 -312 -87 -312 -107 0 -6 5 -6 13 1 18 15 228
79 347 107 58 13 94 24 80 23 -14 0 -71 -10 -128 -24z"/>
<path d="M8465 2610 c-3 -6 1 -7 9 -4 18 7 21 14 7 14 -6 0 -13 -4 -16 -10z"/>
<path d="M305 2590 c-13 -5 -14 -9 -5 -9 8 0 24 4 35 9 13 5 14 9 5 9 -8 0
-24 -4 -35 -9z"/>
<path d="M250 2570 c-8 -5 -10 -10 -5 -10 6 0 17 5 25 10 8 5 11 10 5 10 -5 0
-17 -5 -25 -10z"/>
<path d="M1048 2546 c35 -13 100 -45 145 -72 231 -135 353 -204 362 -204 5 0
-24 20 -65 43 -41 24 -124 74 -185 112 -128 79 -235 132 -285 140 -25 4 -17
-1 28 -19z"/>
<path d="M8932 2545 c0 -16 2 -22 5 -12 2 9 2 23 0 30 -3 6 -5 -1 -5 -18z"/>
<path d="M178 2539 c-21 -11 -38 -22 -38 -24 0 -5 79 32 89 41 12 11 -18 1
-51 -17z"/>
<path d="M980 2541 c0 -6 4 -13 10 -16 6 -3 7 1 4 9 -7 18 -14 21 -14 7z"/>
<path d="M6638 2533 c7 -3 16 -2 19 1 4 3 -2 6 -13 5 -11 0 -14 -3 -6 -6z"/>
<path d="M8230 2401 c-179 -184 -349 -306 -535 -384 -41 -17 -73 -32 -71 -35
16 -15 279 127 396 214 97 72 353 325 328 324 -2 0 -55 -53 -118 -119z"/>
<path d="M9620 2500 c-6 -11 -8 -20 -6 -20 3 0 10 9 16 20 6 11 8 20 6 20 -3
0 -10 -9 -16 -20z"/>
<path d="M1657 2499 c7 -7 15 -10 18 -7 3 3 -2 9 -12 12 -14 6 -15 5 -6 -5z"/>
<path d="M75 2474 l-30 -26 33 22 c17 12 32 23 32 26 0 7 -4 5 -35 -22z"/>
<path d="M1025 2460 c9 -16 18 -30 21 -30 2 0 -2 14 -11 30 -9 17 -18 30 -21
30 -2 0 2 -13 11 -30z"/>
<path d="M1702 2485 c10 -10 201 -95 205 -91 4 4 -91 50 -162 78 -27 11 -47
17 -43 13z"/>
<path d="M4835 2474 l-50 -14 45 5 c34 4 41 3 30 -6 -12 -8 -11 -9 5 -5 48 12
112 26 140 29 17 2 -4 4 -45 4 -41 0 -97 -6 -125 -13z"/>
<path d="M8921 2474 c0 -11 3 -14 6 -6 3 7 2 16 -1 19 -3 4 -6 -2 -5 -13z"/>
<path d="M4018 2463 c7 -3 16 -2 19 1 4 3 -2 6 -13 5 -11 0 -14 -3 -6 -6z"/>
<path d="M3948 2443 c7 -3 16 -2 19 1 4 3 -2 6 -13 5 -11 0 -14 -3 -6 -6z"/>
<path d="M3898 2433 c7 -3 16 -2 19 1 4 3 -2 6 -13 5 -11 0 -14 -3 -6 -6z"/>
<path d="M4265 2430 c-3 -6 1 -7 9 -4 18 7 21 14 7 14 -6 0 -13 -4 -16 -10z"/>
<path d="M4788 2424 c-38 -20 -36 -28 2 -9 17 9 30 18 30 20 0 7 -1 6 -32 -11z"/>
<path d="M9550 2398 c-19 -24 -26 -37 -17 -29 19 15 61 71 54 71 -2 0 -19 -19
-37 -42z"/>
<path d="M1975 2395 c16 -17 44 -41 60 -53 17 -13 22 -21 13 -18 -25 7 -22 -1
3 -15 15 -8 19 -8 15 0 -9 15 7 14 22 -1 6 -6 14 -9 17 -6 3 2 -21 22 -52 43
-32 21 -69 48 -83 59 -17 13 -15 10 5 -9z"/>
<path d="M3848 2423 c6 -2 18 -2 25 0 6 3 1 5 -13 5 -14 0 -19 -2 -12 -5z"/>
<path d="M3788 2413 c6 -2 18 -2 25 0 6 3 1 5 -13 5 -14 0 -19 -2 -12 -5z"/>
<path d="M4152 2383 c-46 -19 -81 -37 -79 -39 6 -6 116 36 152 58 46 27 19 20
-73 -19z"/>
<path d="M3723 2403 c9 -2 25 -2 35 0 9 3 1 5 -18 5 -19 0 -27 -2 -17 -5z"/>
<path d="M4353 2379 c-59 -41 -54 -48 5 -8 58 40 57 39 46 39 -5 -1 -28 -14
-51 -31z"/>
<path d="M6272 2377 c-12 -7 -19 -16 -16 -20 11 -11 26 -8 19 3 -4 6 1 7 11 3
13 -5 15 -3 9 8 -5 7 7 3 26 -9 88 -59 334 -157 444 -177 62 -11 38 1 -50 24
-121 32 -242 80 -242 97 0 17 1 17 37 -1 67 -35 125 -52 150 -44 l25 8 -25 -1
c-14 -1 -34 3 -45 7 -11 4 -47 19 -80 32 -86 35 -93 37 -77 25 29 -20 -19 -22
-56 -2 -27 15 -30 19 -12 15 20 -5 22 -4 10 5 -13 10 -12 11 3 6 9 -3 25 -9
35 -12 14 -5 15 -4 2 5 -21 15 -4 14 28 -3 73 -37 274 -88 288 -73 3 3 -19 8
-48 12 -65 9 -170 41 -222 67 -37 19 -135 36 -108 19 11 -6 10 -10 -3 -15 -10
-3 -29 2 -45 14 -33 23 -29 23 -58 7z"/>
<path d="M4694 2359 c-19 -22 -19 -22 4 -8 12 8 22 17 22 21 0 12 -6 9 -26
-13z"/>
<path d="M7792 2346 c-56 -25 -82 -43 -42 -31 42 13 126 53 110 53 -8 0 -39
-10 -68 -22z"/>
<path d="M1980 2356 c0 -3 9 -10 20 -16 11 -6 20 -8 20 -6 0 3 -9 10 -20 16
-11 6 -20 8 -20 6z"/>
<path d="M6272 2342 c-18 -10 -30 -21 -26 -25 11 -11 26 -8 19 3 -4 6 1 7 11
3 12 -4 15 -3 10 5 -5 8 -1 10 10 5 13 -5 15 -3 9 7 -5 8 4 6 23 -6 18 -10 27
-21 21 -25 -7 -4 -4 -9 6 -13 9 -3 21 -4 25 -1 5 3 24 -4 42 -16 28 -17 29
-20 8 -14 -20 5 -22 4 -10 -5 12 -9 10 -10 -10 -6 -14 3 -19 3 -11 0 10 -5 11
-8 1 -14 -9 -6 -4 -13 16 -24 16 -8 25 -15 20 -16 -5 0 -34 14 -64 31 -30 17
-56 28 -59 25 -3 -2 9 -12 27 -21 18 -9 30 -19 27 -22 -3 -2 -14 0 -24 5 -10
5 -25 7 -33 5 -12 -4 -12 -3 -1 5 14 10 -2 28 -17 18 -4 -2 -14 -1 -22 5 -9 5
-10 9 -3 9 16 0 9 33 -8 38 -8 3 -11 1 -7 -3 4 -5 3 -14 -3 -21 -8 -9 4 -23
46 -55 33 -25 52 -45 45 -49 -22 -13 236 -170 280 -170 8 0 -8 11 -37 24 -67
32 -145 77 -140 82 2 3 40 -13 83 -35 80 -40 283 -116 290 -109 2 2 -45 21
-104 42 -106 38 -249 108 -304 149 -43 32 -24 33 29 0 56 -33 216 -108 253
-117 28 -7 12 2 -95 52 -108 50 -227 113 -223 118 3 2 61 -23 129 -55 115 -55
266 -112 293 -110 6 0 -32 15 -84 34 -106 37 -275 113 -268 121 3 2 56 -16
118 -42 104 -42 219 -79 280 -90 14 -2 -33 15 -105 39 -127 43 -177 62 -280
107 l-50 22 27 14 c24 12 33 11 100 -17 83 -34 314 -102 331 -96 6 2 -21 11
-59 21 -173 44 -382 128 -466 187 -31 22 -25 22 -66 1z m108 -157 c0 -10 -16
-4 -40 16 l-25 20 33 -16 c17 -8 32 -18 32 -20z m20 -41 c22 -15 38 -29 36
-31 -4 -4 -86 46 -86 53 0 8 12 3 50 -22z"/>
<path d="M7528 2353 c6 -2 18 -2 25 0 6 3 1 5 -13 5 -14 0 -19 -2 -12 -5z"/>
<path d="M8856 2308 c-29 -52 -105 -135 -161 -177 l-30 -22 33 18 c45 24 132
116 166 176 16 26 27 50 24 52 -2 2 -17 -19 -32 -47z"/>
<path d="M2107 2329 c12 -13 37 -33 55 -43 42 -24 36 -18 -27 29 -29 22 -41
28 -28 14z"/>
<path d="M7453 2343 c9 -2 23 -2 30 0 6 3 -1 5 -18 5 -16 0 -22 -2 -12 -5z"/>
<path d="M4260 2309 l-35 -30 38 26 c33 24 43 35 34 35 -1 0 -18 -14 -37 -31z"/>
<path d="M6420 2330 c8 -5 20 -10 25 -10 6 0 3 5 -5 10 -8 5 -19 10 -25 10 -5
0 -3 -5 5 -10z"/>
<path d="M6292 2317 c-12 -7 -19 -16 -16 -20 11 -11 26 -8 19 3 -10 16 3 12
45 -15 21 -14 46 -22 55 -19 20 8 8 26 -13 20 -10 -3 -28 1 -42 9 -14 8 -19
14 -12 15 7 0 10 5 7 10 -8 13 -15 12 -43 -3z"/>
<path d="M7578 2313 c7 -3 16 -2 19 1 4 3 -2 6 -13 5 -11 0 -14 -3 -6 -6z"/>
<path d="M6958 2303 c12 -2 30 -2 40 0 9 3 -1 5 -23 4 -22 0 -30 -2 -17 -4z"/>
<path d="M7675 2300 c-8 -13 5 -13 25 0 13 8 13 10 -2 10 -9 0 -20 -4 -23 -10z"/>
<path d="M7740 2300 c-13 -9 -13 -10 0 -10 8 0 22 5 30 10 13 9 13 10 0 10 -8
0 -22 -5 -30 -10z"/>
<path d="M3920 2285 c-14 -8 -20 -14 -15 -14 6 0 21 6 35 14 14 8 21 14 15 14
-5 0 -21 -6 -35 -14z"/>
<path d="M7033 2293 c9 -2 25 -2 35 0 9 3 1 5 -18 5 -19 0 -27 -2 -17 -5z"/>
<path d="M7478 2293 c7 -3 16 -2 19 1 4 3 -2 6 -13 5 -11 0 -14 -3 -6 -6z"/>
<path d="M6295 2282 c-5 -4 -11 -13 -13 -20 -2 -10 2 -10 18 -2 15 8 27 7 49
-5 47 -24 50 -17 6 10 -44 27 -46 28 -60 17z"/>
<path d="M6893 2283 c9 -2 23 -2 30 0 6 3 -1 5 -18 5 -16 0 -22 -2 -12 -5z"/>
<path d="M7128 2283 c6 -2 18 -2 25 0 6 3 1 5 -13 5 -14 0 -19 -2 -12 -5z"/>
<path d="M6953 2273 c9 -2 25 -2 35 0 9 3 1 5 -18 5 -19 0 -27 -2 -17 -5z"/>
<path d="M6771 2266 c2 -2 36 -6 74 -9 42 -3 58 -2 40 3 -30 8 -122 13 -114 6z"/>
<path d="M7033 2263 c9 -2 23 -2 30 0 6 3 -1 5 -18 5 -16 0 -22 -2 -12 -5z"/>
<path d="M7263 2263 c15 -2 37 -2 50 0 12 2 0 4 -28 4 -27 0 -38 -2 -22 -4z"/>
<path d="M7400 2254 l-65 -13 56 5 c32 3 70 9 85 14 44 13 -1 10 -76 -6z"/>
<path d="M7605 2255 c-16 -7 -23 -14 -15 -14 8 0 29 6 45 14 17 7 23 14 15 14
-8 0 -28 -6 -45 -14z"/>
<path d="M4164 2238 l-19 -23 23 19 c12 11 22 21 22 23 0 8 -8 2 -26 -19z"/>
<path d="M4506 2252 c-3 -5 1 -9 9 -9 8 0 12 4 9 9 -3 4 -7 8 -9 8 -2 0 -6 -4
-9 -8z"/>
<path d="M6708 2253 c7 -3 16 -2 19 1 4 3 -2 6 -13 5 -11 0 -14 -3 -6 -6z"/>
<path d="M7538 2253 c7 -3 16 -2 19 1 4 3 -2 6 -13 5 -11 0 -14 -3 -6 -6z"/>
<path d="M1607 2239 c7 -7 15 -10 18 -7 3 3 -2 9 -12 12 -14 6 -15 5 -6 -5z"/>
<path d="M6753 2243 c9 -2 23 -2 30 0 6 3 -1 5 -18 5 -16 0 -22 -2 -12 -5z"/>
<path d="M6968 2243 c6 -2 18 -2 25 0 6 3 1 5 -13 5 -14 0 -19 -2 -12 -5z"/>
<path d="M6440 2237 c15 -15 171 -72 286 -106 119 -35 97 -22 -44 24 -73 25
-145 51 -160 58 -28 15 -91 32 -82 24z"/>
<path d="M6705 2230 c11 -5 29 -8 40 -8 16 0 15 2 -5 8 -34 11 -60 11 -35 0z"/>
<path d="M6835 2229 c51 -10 92 -10 50 1 -16 4 -43 8 -60 8 -25 0 -24 -2 10
-9z"/>
<path d="M7023 2233 c9 -2 25 -2 35 0 9 3 1 5 -18 5 -19 0 -27 -2 -17 -5z"/>
<path d="M7278 2233 c12 -2 30 -2 40 0 9 3 -1 5 -23 4 -22 0 -30 -2 -17 -4z"/>
<path d="M7420 2230 c-20 -6 -21 -8 -5 -8 11 0 29 3 40 8 25 11 -1 11 -35 0z"/>
<path d="M7138 2223 c18 -2 45 -2 60 0 15 2 0 4 -33 4 -33 0 -45 -2 -27 -4z"/>
<path d="M6771 2215 c7 -7 160 -35 184 -34 11 0 -20 9 -70 19 -94 20 -122 23
-114 15z"/>
<path d="M6938 2213 c6 -2 18 -2 25 0 6 3 1 5 -13 5 -14 0 -19 -2 -12 -5z"/>
<path d="M7368 2213 c7 -3 16 -2 19 1 4 3 -2 6 -13 5 -11 0 -14 -3 -6 -6z"/>
<path d="M7525 2200 c-27 -10 -43 -18 -35 -18 8 0 38 8 65 18 28 10 43 18 35
18 -8 0 -37 -8 -65 -18z"/>
<path d="M7023 2203 c15 -2 37 -2 50 0 12 2 0 4 -28 4 -27 0 -38 -2 -22 -4z"/>
<path d="M7425 2200 c-28 -7 -28 -8 -5 -9 14 0 32 4 40 9 17 11 8 11 -35 0z"/>
<path d="M1737 2179 c7 -7 15 -10 18 -7 3 3 -2 9 -12 12 -14 6 -15 5 -6 -5z"/>
<path d="M6830 2170 c14 -4 34 -8 45 -8 16 0 15 2 -5 8 -14 4 -34 8 -45 8 -16
0 -15 -2 5 -8z"/>
<path d="M6988 2173 c6 -2 18 -2 25 0 6 3 1 5 -13 5 -14 0 -19 -2 -12 -5z"/>
<path d="M7425 2170 c-13 -5 -14 -9 -5 -9 8 0 24 4 35 9 13 5 14 9 5 9 -8 0
-24 -4 -35 -9z"/>
<path d="M1820 2139 c85 -48 176 -92 165 -81 -13 13 -200 112 -211 112 -5 0
16 -14 46 -31z"/>
<path d="M4086 2151 c-16 -11 -34 -28 -39 -38 -6 -10 8 -3 34 17 24 18 46 35
48 37 2 2 0 3 -5 3 -5 0 -22 -9 -38 -19z"/>
<path d="M7060 2158 c0 -5 35 -7 78 -7 78 2 69 6 -26 11 -28 2 -52 0 -52 -4z"/>
<path d="M7238 2163 c7 -3 16 -2 19 1 4 3 -2 6 -13 5 -11 0 -14 -3 -6 -6z"/>
<path d="M4035 2150 c-3 -6 1 -7 9 -4 18 7 21 14 7 14 -6 0 -13 -4 -16 -10z"/>
<path d="M6920 2150 c34 -11 60 -11 35 0 -11 5 -29 8 -40 8 -16 0 -15 -2 5 -8z"/>
<path d="M7470 2150 c-21 -7 -21 -8 -5 -9 11 0 27 4 35 9 18 11 5 11 -30 0z"/>
<path d="M8252 2140 c0 -14 2 -19 5 -12 2 6 2 18 0 25 -3 6 -5 1 -5 -13z"/>
<path d="M7005 2129 c30 -7 259 -11 240 -4 -5 2 -68 5 -140 7 -71 2 -116 1
-100 -3z"/>
<path d="M7268 2133 c7 -3 16 -2 19 1 4 3 -2 6 -13 5 -11 0 -14 -3 -6 -6z"/>
<path d="M7418 2133 c7 -3 16 -2 19 1 4 3 -2 6 -13 5 -11 0 -14 -3 -6 -6z"/>
<path d="M3974 2115 c-10 -8 -14 -15 -8 -15 6 0 17 7 24 15 16 19 9 19 -16 0z"/>
<path d="M6888 2123 c7 -3 16 -2 19 1 4 3 -2 6 -13 5 -11 0 -14 -3 -6 -6z"/>
<path d="M7540 2110 c-19 -11 -30 -19 -25 -19 6 0 26 8 45 19 19 11 31 19 25
19 -5 0 -26 -8 -45 -19z"/>
<path d="M7338 2113 c7 -3 16 -2 19 1 4 3 -2 6 -13 5 -11 0 -14 -3 -6 -6z"/>
<path d="M7435 2105 c-40 -19 -16 -19 26 0 19 8 27 14 19 14 -8 0 -28 -7 -45
-14z"/>
<path d="M6828 2103 c7 -3 16 -2 19 1 4 3 -2 6 -13 5 -11 0 -14 -3 -6 -6z"/>
<path d="M7255 2100 c-27 -7 -27 -8 -5 -8 14 0 36 4 50 8 20 6 21 8 5 8 -11 0
-33 -4 -50 -8z"/>
<path d="M6875 2090 c11 -5 29 -8 40 -8 16 0 15 2 -5 8 -34 11 -60 11 -35 0z"/>
<path d="M7083 2083 c26 -2 67 -2 90 0 23 2 2 3 -48 3 -49 0 -68 -1 -42 -3z"/>
<path d="M7378 2083 c7 -3 16 -2 19 1 4 3 -2 6 -13 5 -11 0 -14 -3 -6 -6z"/>
<path d="M6953 2073 c9 -2 23 -2 30 0 6 3 -1 5 -18 5 -16 0 -22 -2 -12 -5z"/>
<path d="M7295 2069 c-22 -6 -87 -14 -145 -19 l-105 -9 115 4 c63 3 135 11
160 19 51 16 35 19 -25 5z"/>
<path d="M6878 2053 c7 -3 16 -2 19 1 4 3 -2 6 -13 5 -11 0 -14 -3 -6 -6z"/>
<path d="M7355 2044 c-27 -8 -104 -18 -169 -24 -140 -12 -171 -23 -40 -15 92
7 227 29 266 45 35 13 -1 10 -57 -6z"/>
<path d="M2000 2046 c0 -3 9 -10 20 -16 11 -6 20 -8 20 -6 0 3 -9 10 -20 16
-11 6 -20 8 -20 6z"/>
<path d="M6938 2043 c7 -3 16 -2 19 1 4 3 -2 6 -13 5 -11 0 -14 -3 -6 -6z"/>
<path d="M6845 2025 c22 -8 54 -13 70 -13 19 0 7 5 -30 13 -75 17 -92 17 -40
0z"/>
<path d="M6750 2015 c19 -7 42 -13 50 -13 8 0 -1 6 -20 13 -19 7 -42 13 -50
13 -8 0 1 -6 20 -13z"/>
<path d="M8150 2009 c-22 -18 -22 -19 -3 -10 12 6 25 16 28 21 9 15 3 12 -25
-11z"/>
<path d="M2050 2016 c0 -3 9 -10 20 -16 11 -6 20 -8 20 -6 0 3 -9 10 -20 16
-11 6 -20 8 -20 6z"/>
<path d="M6978 2003 c12 -2 32 -2 45 0 12 2 2 4 -23 4 -25 0 -35 -2 -22 -4z"/>
<path d="M6640 1997 c0 -3 15 -10 32 -16 18 -6 28 -7 23 -2 -12 10 -55 25 -55
18z"/>
<path d="M6868 1983 c7 -3 16 -2 19 1 4 3 -2 6 -13 5 -11 0 -14 -3 -6 -6z"/>
<path d="M6936 1968 c51 -9 226 -9 284 1 27 4 -30 7 -139 6 -100 0 -166 -3
-145 -7z"/>
<path d="M6838 1953 c7 -3 16 -2 19 1 4 3 -2 6 -13 5 -11 0 -14 -3 -6 -6z"/>
<path d="M6888 1943 c7 -3 16 -2 19 1 4 3 -2 6 -13 5 -11 0 -14 -3 -6 -6z"/>
<path d="M7268 1943 c6 -2 18 -2 25 0 6 3 1 5 -13 5 -14 0 -19 -2 -12 -5z"/>
<path d="M6960 1930 c46 -9 137 -13 129 -6 -2 2 -42 6 -89 9 -62 4 -73 3 -40
-3z"/>
<path d="M7183 1933 c9 -2 23 -2 30 0 6 3 -1 5 -18 5 -16 0 -22 -2 -12 -5z"/>
<path d="M6828 1923 c7 -3 16 -2 19 1 4 3 -2 6 -13 5 -11 0 -14 -3 -6 -6z"/>
<path d="M5525 1889 c-4 -6 -5 -12 -2 -15 2 -3 7 2 10 11 7 17 1 20 -8 4z"/>
<path d="M6990 1860 c20 -13 33 -13 25 0 -3 6 -14 10 -23 10 -15 0 -15 -2 -2
-10z"/>
<path d="M7042 1845 c8 -9 159 -47 165 -42 2 2 -27 12 -64 21 -37 9 -77 19
-88 23 -11 3 -17 2 -13 -2z"/>
<path d="M7235 1790 c11 -5 29 -8 40 -8 16 0 15 2 -5 8 -34 11 -60 11 -35 0z"/>
<path d="M7373 1763 c9 -2 25 -2 35 0 9 3 1 5 -18 5 -19 0 -27 -2 -17 -5z"/>
<path d="M7443 1753 c9 -2 23 -2 30 0 6 3 -1 5 -18 5 -16 0 -22 -2 -12 -5z"/>
<path d="M1987 1619 c7 -7 15 -10 18 -7 3 3 -2 9 -12 12 -14 6 -15 5 -6 -5z"/>
<path d="M2148 1563 c7 -3 16 -2 19 1 4 3 -2 6 -13 5 -11 0 -14 -3 -6 -6z"/>
<path d="M2558 1473 c6 -2 18 -2 25 0 6 3 1 5 -13 5 -14 0 -19 -2 -12 -5z"/>
</g>
</svg>
